<?xml version="1.0" encoding="UTF-8" standalone="no"?>
<svg xmlns="http://www.w3.org/2000/svg" xmlns:xlink="http://www.w3.org/1999/xlink" xmlns:serif="http://www.serif.com/" width="100%" height="100%" viewBox="0 0 700 280" version="1.1" xml:space="preserve" style="fill-rule:evenodd;clip-rule:evenodd;stroke-linejoin:round;stroke-miterlimit:2;"> <g id="FTL" transform="matrix(1,0,0,1,106.422,-2.84217e-14)"> <g transform="matrix(0.968549,0,0,0.968549,54.58,-137.722)"> <path d="M460.67,246.18L451.79,246.18L451.79,267.57L460.67,267.57C465.19,267.57 468.63,266.62 471.01,264.71C473.39,262.8 474.57,259.98 474.57,256.24C474.57,252.5 473.38,249.89 471.01,248.41C468.64,246.92 465.19,246.18 460.67,246.18ZM462.07,232.5L462.93,232.51C466.66,232.56 470.17,232.95 473.46,233.67C477,234.45 480.1,235.75 482.75,237.59C485.4,239.42 487.5,241.86 489.06,244.89C490.62,247.93 491.4,251.71 491.4,256.23C491.4,261.84 490.17,266.46 487.72,270.08C485.27,273.7 481.98,276.41 477.85,278.2L495.14,308.7L475.86,308.7L461.25,281.23L451.79,281.23L451.79,308.7L434.61,308.7L434.61,232.5L462.07,232.5ZM424.34,232.5L424.34,247L393.84,247L393.84,262.31L419.78,262.31L419.78,276.69L393.84,276.69L393.84,294.22L425.5,294.22L425.5,308.71L376.66,308.71L376.66,232.51L424.34,232.51L424.34,232.5ZM364.76,232.5L364.76,308.7L347.58,308.7L347.58,232.5L364.76,232.5ZM341.75,232.5L341.75,247L320.84,247L320.84,308.71L303.55,308.71L303.55,247L282.64,247L282.64,232.5L341.75,232.5ZM524.11,231.1C528.55,231.1 532.93,231.96 537.25,233.67C541.57,235.38 545.37,237.88 548.64,241.15L539.88,252.02L539.35,251.61C537.04,249.86 534.72,248.5 532.41,247.52C529.92,246.47 527.15,245.94 524.11,245.94C521.15,245.94 518.79,246.54 517.04,247.75C515.29,248.96 514.41,250.65 514.41,252.83C514.41,254 514.7,254.99 515.29,255.81C515.87,256.63 516.69,257.37 517.74,258.03C518.79,258.69 520.02,259.32 521.42,259.9C522.82,260.48 524.34,261.13 525.98,261.83L535.79,265.8L536.32,266.02C540.74,267.87 544.24,270.37 546.83,273.51C549.52,276.78 550.86,281.11 550.86,286.48C550.86,289.67 550.22,292.69 548.93,295.54C547.64,298.38 545.78,300.88 543.32,303.02C540.87,305.16 537.85,306.88 534.26,308.16C530.68,309.45 526.63,310.09 522.11,310.09C517.12,310.09 512.16,309.17 507.21,307.34C502.26,305.51 497.84,302.76 493.95,299.1L503.76,287.3L504.31,287.76C506.89,289.89 509.73,291.64 512.82,293.03C516.13,294.51 519.38,295.25 522.58,295.25C526.16,295.25 528.83,294.59 530.58,293.26C532.33,291.94 533.21,290.14 533.21,287.88C533.21,286.71 532.96,285.7 532.45,284.84C531.94,283.98 531.2,283.22 530.23,282.56C529.26,281.9 528.09,281.27 526.72,280.69C525.36,280.11 523.86,279.46 522.22,278.76L512.29,274.55L511.64,274.28C509.92,273.54 508.25,272.62 506.62,271.51C504.79,270.26 503.15,268.8 501.71,267.13C500.27,265.45 499.12,263.51 498.26,261.29C497.4,259.07 496.97,256.56 496.97,253.75C496.97,250.63 497.63,247.69 498.96,244.93C500.28,242.16 502.15,239.75 504.57,237.68C506.98,235.62 509.85,234 513.16,232.83C516.49,231.69 520.13,231.1 524.11,231.1ZM513.27,318.21L519.93,332.59L520.36,333.49C521.07,335.01 521.79,336.6 522.5,338.25C523.36,340.24 524.33,342.44 525.42,344.85L525.89,344.85L526.17,344.05C526.93,341.95 527.67,340.01 528.4,338.24C529.22,336.25 530.02,334.36 530.8,332.57L536.88,318.19L555.22,318.19L535.47,356.06L556.5,394.4L537.34,394.4L529.75,378.86L528.82,376.84C528.21,375.5 527.6,374.16 527,372.84C526.1,370.85 525.11,368.69 524.02,366.35L523.55,366.35L523.23,367.22C522.48,369.23 521.73,371.1 520.98,372.84C520.12,374.83 519.27,376.83 518.41,378.86L511.28,394.4L492.82,394.4L513.97,355.25L494.11,318.2L513.27,318.2L513.27,318.21ZM417.39,318.21L417.39,332.7L386.89,332.7L386.89,348.01L412.83,348.01L412.83,362.39L386.89,362.39L386.89,379.92L418.55,379.92L418.55,394.41L369.71,394.41L369.71,318.21L417.39,318.21ZM356.59,318.21L356.59,394.41L339.41,394.41L339.41,318.21L356.59,318.21ZM300.93,318.21L300.93,379.92L331.08,379.92L331.08,394.41L283.76,394.41L283.76,318.21L300.93,318.21ZM445.7,318.21L445.7,361.43C445.75,368.61 446.88,373.65 449.09,376.53C451.35,379.49 454.62,380.97 458.9,380.97C463.18,380.97 466.49,379.49 468.83,376.53C471.17,373.57 472.34,368.35 472.34,360.87L472.34,318.21L488.93,318.21L488.93,359.79C488.84,372.22 486.29,381.31 481.28,387.05C476.18,392.89 468.72,395.82 458.9,395.82C449.01,395.82 441.45,392.9 436.23,387.05C431.01,381.21 428.4,371.9 428.4,359.12L428.4,318.21L445.7,318.21Z" style="fill:white;fill-rule:nonzero;"/> </g> <g transform="matrix(0.968549,0,0,0.968549,54.58,-137.722)"> <clipPath id="_clip1"> <path d="M388.83,428.24C392.14,428.24 395.57,428.16 399.11,428.01C402.65,427.85 406.11,427.62 409.5,427.31C411.31,427.15 413.42,426.96 415.83,426.73C418.24,426.5 420.78,426.24 423.46,425.97C426.13,425.7 428.75,425.41 431.31,425.09C433.87,424.78 436.19,424.51 438.26,424.27C440.33,424.04 442.01,423.84 443.29,423.69C444.57,423.53 445.21,423.46 445.21,423.46L447.13,421.47C444.8,420.61 442.33,420.07 439.73,419.83C437.13,419.6 434.55,419.48 431.99,419.48C428.53,419.48 424.95,419.62 421.26,419.89C417.57,420.16 413.84,420.45 410.07,420.77C406.3,421.08 402.56,421.39 398.83,421.7C395.1,422.01 391.47,422.25 387.93,422.4C387.4,422.56 386.71,422.95 385.84,423.57C384.97,424.19 384.43,424.82 384.2,425.44C384.05,425.99 384.14,426.45 384.48,426.84C384.82,427.23 385.27,427.52 385.84,427.72C386.4,427.91 386.95,428.05 387.48,428.13C388,428.2 388.46,428.24 388.83,428.24Z"/> </clipPath> <g clip-path="url(#_clip1)"> <rect x="379.13" y="414.48" width="73" height="18.76" style="fill:rgb(232,51,109);"/> </g> </g> <g transform="matrix(0.968549,0,0,0.968549,54.58,-137.722)"> <clipPath id="_clip2"> <path d="M521.96,204.52C522.3,202.98 522.62,201.63 522.92,200.48C523.22,199.32 523.59,198.25 524.03,197.25C524.47,196.25 525.07,195.29 525.85,194.36C526.62,193.43 527.69,192.39 529.03,191.23C528.9,192.77 528.69,194.13 528.42,195.32C528.15,196.51 527.75,197.61 527.21,198.64C526.67,199.67 525.98,200.66 525.14,201.63C524.3,202.6 523.24,203.56 521.96,204.52ZM527.29,224.97C528.4,224.97 529.75,224.84 531.35,224.58C532.95,224.32 534.63,223.93 536.39,223.4C538.15,222.88 539.93,222.23 541.72,221.44C543.51,220.66 545.11,219.76 546.51,218.75C547.91,217.74 549.05,216.6 549.93,215.32C550.81,214.05 551.25,212.69 551.25,211.26C551.25,210.74 551.18,210.22 551.05,209.69C550.92,209.17 550.53,208.91 549.88,208.91C549.23,208.91 548.61,209.15 548.02,209.64C547.43,210.13 546.88,210.7 546.36,211.35C545.84,212 545.33,212.64 544.84,213.26C544.35,213.88 543.94,214.35 543.62,214.68C541.27,216.57 538.7,217.94 535.89,218.79C533.09,219.64 530.15,220.06 527.08,220.06C526.04,220.06 525.07,220.01 524.19,219.91C523.31,219.81 522.53,219.55 521.84,219.13C521.16,218.71 520.62,218.13 520.23,217.42C519.84,216.7 519.64,215.76 519.64,214.58L519.64,214.38C519.64,214.18 519.71,213.86 519.84,213.4C519.97,212.94 520.07,212.62 520.13,212.42C522.22,210.66 524.08,208.98 525.71,207.38C527.34,205.78 528.73,204.07 529.87,202.24C531.01,200.41 531.86,198.42 532.41,196.27C532.96,194.12 533.24,191.64 533.24,188.83C533.24,188.57 533.22,188.1 533.19,187.41C533.16,186.72 533.14,186.25 533.14,185.99C532.88,185.27 532.57,184.6 532.21,183.98C531.85,183.36 531.25,183.05 530.4,183.05C528.12,183.05 526.21,183.56 524.68,184.57C523.15,185.58 521.89,186.87 520.91,188.44C519.93,190.01 519.17,191.7 518.61,193.53C518.06,195.36 517.58,197.06 517.19,198.62C517.06,199.01 516.88,199.75 516.65,200.82C516.42,201.9 516.16,203.02 515.87,204.2C515.58,205.38 515.28,206.47 514.99,207.48C514.7,208.49 514.48,209.19 514.35,209.59L513.86,216.35C514.71,219.81 516.29,222.11 518.61,223.25C520.94,224.4 523.83,224.97 527.29,224.97ZM480.64,224.97C481.48,224.97 482.21,224.95 482.82,224.92C483.43,224.89 484.03,224.8 484.61,224.67C485.19,224.54 485.84,224.39 486.55,224.22C487.26,224.05 488.13,223.81 489.17,223.48C489.95,223.15 491.16,222.67 492.8,222.04C494.45,221.41 496.14,220.77 497.89,220.11C499.63,219.45 501.27,218.82 502.78,218.23C504.3,217.64 505.28,217.27 505.74,217.14C507.36,216.41 509.05,215.52 510.83,214.46C512.61,213.4 514.24,212.18 515.72,210.79C517.21,209.4 518.45,207.85 519.45,206.13C520.45,204.41 520.95,202.5 520.95,200.38C520.95,199.72 520.84,199.04 520.61,198.35C520.38,197.66 519.85,197.31 519.01,197.31C518.11,197.31 517.43,197.64 516.97,198.3C516.52,198.96 516.11,199.74 515.76,200.63C515.4,201.52 515.08,202.43 514.79,203.36C514.5,204.28 514.16,205.01 513.77,205.54C512.09,207.46 509.83,209.29 506.99,211.04C504.15,212.79 501.13,214.29 497.93,215.55C494.73,216.81 491.55,217.81 488.38,218.57C485.21,219.33 482.47,219.71 480.14,219.71C480.01,219.71 479.56,219.69 478.78,219.66C478,219.63 477.52,219.61 477.33,219.61C476.81,219.28 476.25,218.95 475.63,218.62C475.02,218.29 474.64,217.79 474.52,217.13L474.52,216.24C474.52,215.84 474.5,215.45 474.47,215.05C474.44,214.65 474.42,214.26 474.42,213.86L474.42,212.97C474.42,210.86 474.66,209.04 475.15,207.52C475.63,206 476.31,204.58 477.19,203.26C478.06,201.94 479.08,200.63 480.24,199.35C481.4,198.06 482.66,196.59 484.02,194.94C484.08,194.81 484.23,194.63 484.46,194.4C484.69,194.17 484.83,194.02 484.9,193.95L485.29,193.95C485.81,194.08 486.23,194.31 486.55,194.64C486.87,194.97 487.18,195.3 487.47,195.63C487.76,195.96 488.1,196.24 488.49,196.47C488.88,196.7 489.33,196.82 489.85,196.82C490.69,196.82 491.43,196.65 492.08,196.32C492.73,195.99 493.05,195.4 493.05,194.54C493.05,193.75 492.9,192.87 492.61,191.91C492.32,190.95 491.9,190.04 491.35,189.19C490.8,188.33 490.17,187.6 489.46,187.01C488.75,186.42 487.94,186.12 487.04,186.12C486.59,186.12 486.25,186.17 486.02,186.27C485.79,186.37 485.6,186.5 485.44,186.67C485.28,186.84 485.08,187 484.86,187.17C484.63,187.34 484.36,187.52 484.04,187.71C482.81,187.25 481.37,187.61 479.73,188.8C478.08,189.99 476.47,191.67 474.88,193.85C473.3,196.03 471.91,198.64 470.71,201.68C469.51,204.72 468.76,207.92 468.43,211.29C468.56,213.54 468.83,215.5 469.25,217.19C469.67,218.87 470.33,220.29 471.24,221.45C472.14,222.61 473.36,223.48 474.87,224.08C476.39,224.67 478.31,224.97 480.64,224.97ZM429.66,224.97C430.08,224.97 430.49,224.92 430.88,224.82C431.27,224.72 431.61,224.57 431.9,224.37C432.19,224.17 432.31,223.87 432.24,223.47C432.3,222.93 432.43,222.06 432.63,220.86C432.82,219.66 433.04,218.38 433.26,217.05C433.49,215.71 433.73,214.44 433.99,213.24C434.25,212.04 434.44,211.2 434.57,210.73C434.96,209.39 435.59,207.69 436.47,205.61C437.35,203.54 438.39,201.49 439.59,199.49C440.79,197.48 442.16,195.78 443.68,194.37C445.21,192.96 446.75,192.26 448.31,192.26L448.31,195.57L444.51,215.04L444.51,216.34C444.51,217.41 444.56,218.41 444.66,219.35C444.76,220.29 444.98,221.14 445.34,221.91C445.7,222.68 446.23,223.3 446.95,223.77C447.66,224.24 448.64,224.47 449.87,224.47C451.1,224.47 452.6,224.24 454.35,223.77C456.1,223.3 457.91,222.67 459.76,221.86C461.61,221.06 463.49,220.09 465.41,218.95C467.33,217.81 469.01,216.61 470.48,215.34C471.94,214.07 473.14,212.71 474.08,211.28C475.02,209.84 475.49,208.39 475.49,206.91C475.49,206.44 475.34,206.06 475.05,205.76C474.76,205.46 474.38,205.31 473.93,205.31L473.54,205.31C472.24,206.85 470.71,208.44 468.96,210.08C467.21,211.72 465.32,213.17 463.31,214.45C461.3,215.72 459.2,216.78 457.03,217.61C454.85,218.45 452.76,218.86 450.75,218.86L450.75,210.73L454.45,193.57L454.45,193.17C454.45,193.04 454.47,192.95 454.5,192.92L454.52,192.89C454.54,192.85 454.55,192.77 454.55,192.67C454.55,190.8 454.01,189.26 452.94,188.05C451.87,186.85 450.39,186.24 448.51,186.24C447.6,186.24 446.64,186.47 445.64,186.94C444.63,187.41 443.77,187.98 443.06,188.65C442.87,188.92 442.44,189.35 441.79,189.95C441.14,190.55 440.44,191.19 439.7,191.86C438.95,192.53 438.25,193.16 437.61,193.77C436.96,194.37 436.51,194.77 436.25,194.97L436.25,188.14C436.25,187.54 435.91,187.05 435.23,186.68C434.55,186.31 433.95,186.13 433.43,186.13C433.24,186.13 432.88,186.15 432.36,186.18C431.84,186.21 431.48,186.36 431.29,186.63L429.34,199.98L429.34,202.79L426,222.86L426,223.16C426,223.96 426.29,224.46 426.88,224.67C427.46,224.87 428.05,224.97 428.63,224.97L429.66,224.97ZM382.57,219.86L382.57,217.11L384.94,205.19C385.01,204.99 385.12,204.73 385.28,204.43C385.44,204.12 385.64,203.8 385.87,203.46C386.1,203.12 386.31,202.83 386.51,202.59C386.71,202.35 386.84,202.23 386.9,202.23C387.23,201.89 387.84,201.25 388.72,200.3C389.6,199.35 390.56,198.33 391.58,197.24C392.6,196.15 393.57,195.15 394.49,194.24C395.41,193.32 396.07,192.7 396.46,192.36C396.59,192.29 396.87,192.26 397.3,192.26L398.14,192.26C399.13,192.26 399.91,192.33 400.51,192.46C401.11,192.59 401.82,193.04 402.68,193.78C402.68,193.92 402.7,194.12 402.73,194.39L402.75,194.54C402.77,194.74 402.78,194.89 402.78,195C402.78,196.97 402.53,198.89 402.04,200.75C401.55,202.62 401.27,204.57 401.2,206.61C400.41,207.83 399.29,209.21 397.85,210.73C396.4,212.26 394.8,213.7 393.02,215.06C391.25,216.42 389.44,217.56 387.6,218.47C385.75,219.4 384.08,219.86 382.57,219.86ZM381.79,224.97C383.56,224.97 385.3,224.61 387,223.88C388.7,223.15 390.37,222.29 392.01,221.3C393.65,220.31 395.22,219.21 396.73,218.02C398.24,216.83 399.65,215.7 400.96,214.64C400.83,215.9 400.85,217.11 401.01,218.27C401.17,219.43 401.49,220.42 401.94,221.25C402.4,222.08 403.09,222.74 404,223.24C404.92,223.74 406.1,223.99 407.54,223.99C408.46,223.99 409.49,223.87 410.64,223.64C411.79,223.41 412.95,223.09 414.13,222.7C415.31,222.3 416.46,221.89 417.57,221.46C418.68,221.03 419.7,220.55 420.62,220.02C421.14,219.82 422.01,219.39 423.22,218.73C424.43,218.07 425.73,217.37 427.1,216.64C428.48,215.91 429.77,215.25 430.98,214.65C432.19,214.05 433.03,213.59 433.49,213.26C433.82,212.99 434,212.71 434.03,212.41C434.06,212.11 434.08,211.8 434.08,211.47C434.08,210.81 433.87,210.28 433.44,209.88C433.01,209.48 432.47,209.28 431.82,209.28C431.75,209.28 431.64,209.3 431.48,209.33L431.37,209.35C431.27,209.37 431.19,209.38 431.14,209.38L412.47,218.13C411.81,218.4 411.18,218.54 410.55,218.58C409.93,218.61 409.29,218.63 408.63,218.63C408.5,218.63 408.17,218.61 407.65,218.58C407.13,218.55 406.8,218.53 406.67,218.53C406.6,218.4 406.52,218.02 406.42,217.39C406.32,216.76 406.24,216.38 406.17,216.25L406.17,215.65C406.17,213.86 406.35,212.15 406.71,210.53C407.07,208.91 407.46,207.27 407.89,205.61C408.32,203.95 408.71,202.31 409.07,200.69C409.43,199.07 409.61,197.39 409.61,195.67C409.61,194.41 409.5,193.15 409.27,191.89C409.04,190.63 408.65,189.5 408.09,188.51C407.53,187.52 406.78,186.7 405.83,186.07C404.88,185.44 403.68,185.13 402.24,185.13L400.47,185.13C396.54,185.59 392.92,186.87 389.61,188.96C386.3,191.05 383.58,193.63 381.45,196.71C379.32,199.79 377.85,203.25 377.03,207.1C376.21,210.94 376.36,214.85 377.47,218.83L377.47,221.91C377.8,222.97 378.35,223.75 379.14,224.25C379.93,224.72 380.81,224.97 381.79,224.97ZM357.73,224.97C358.65,224.97 359.97,224.67 361.7,224.07C363.43,223.47 365.33,222.67 367.39,221.66C369.45,220.66 371.56,219.54 373.72,218.3C375.88,217.06 377.84,215.81 379.61,214.54C381.38,213.27 382.82,212.03 383.93,210.83C385.04,209.63 385.6,208.62 385.6,207.82C385.6,207.62 385.57,207.32 385.5,206.92C385.43,206.52 385.3,206.32 385.11,206.32L382.17,206.32C381.65,206.72 381.16,207.12 380.7,207.52C379.78,208.26 379,208.82 378.35,209.23C377.96,209.5 377.55,209.78 377.12,210.08C376.69,210.38 376.35,210.77 376.09,211.23L367.46,216.65C366.74,216.78 366.05,217 365.4,217.3C364.75,217.6 364.08,217.92 363.39,218.25C362.7,218.58 362.03,218.89 361.38,219.15C360.73,219.42 360.01,219.55 359.22,219.55C358.89,219.55 358.55,219.53 358.19,219.5C357.83,219.47 357.68,219.15 357.75,218.55L357.75,215.94C357.75,214.6 357.9,213.11 358.19,211.48C358.48,209.84 358.78,208.2 359.07,206.56C359.36,204.92 359.66,203.3 359.95,201.69C360.24,200.08 360.39,198.65 360.39,197.38C360.39,195.98 360.14,194.89 359.65,194.12C359.16,193.35 358.33,192.63 357.15,191.96C356.1,191.42 354.89,190.92 353.52,190.46C352.15,190 350.85,189.56 349.64,189.16C348.43,188.76 347.42,188.39 346.6,188.06C345.78,187.73 345.41,187.42 345.47,187.16C344.82,187.16 344.26,187.39 343.8,187.86C343.34,188.33 342.95,188.88 342.62,189.52C342.29,190.16 342.05,190.84 341.88,191.58C341.72,192.32 341.63,192.95 341.63,193.49C341.63,194.03 341.65,194.48 341.68,194.84C341.71,195.21 341.86,195.63 342.12,196.09C341.4,197.9 340.88,199.55 340.55,201.06C340.22,202.56 339.8,203.99 339.27,205.32C338.74,206.65 338.04,208 337.16,209.33C336.28,210.66 334.92,212.04 333.09,213.44C333.02,214.64 333.06,215.56 333.19,216.2C333.32,216.84 333.5,217.3 333.73,217.6C333.96,217.9 334.19,218.08 334.42,218.15C334.65,218.22 334.8,218.25 334.86,218.25C337.41,216.44 339.23,214.6 340.31,212.73C341.39,210.86 342.21,208.98 342.76,207.11C343.32,205.24 343.87,203.43 344.43,201.69C344.99,199.95 345.98,198.31 347.42,196.77C347.42,196.84 347.89,197.09 348.84,197.52C349.79,197.95 350.82,198.46 351.93,199.02C353.04,199.58 354.07,200.11 355.02,200.58C355.97,201.05 356.44,201.32 356.44,201.38C356.44,202.18 356.21,203.25 355.75,204.59C355.29,205.93 354.77,207.3 354.18,208.7C353.59,210.1 353.07,211.48 352.61,212.81C352.15,214.14 351.92,215.18 351.92,215.92C351.92,216.92 352,217.94 352.17,218.98C352.33,220.02 352.64,220.97 353.1,221.84C353.56,222.71 354.15,223.45 354.87,224.05C355.61,224.67 356.56,224.97 357.73,224.97ZM295.29,223.95C295.97,223.95 296.44,223.75 296.71,223.36L302.37,212.85L308.03,194.18L309.01,186.52L310.86,186.52C311.38,186.52 311.92,186.5 312.47,186.47C313.02,186.44 313.49,186.42 313.89,186.42C316.62,186.42 319.34,186.6 322.04,186.96C324.74,187.32 327.39,187.5 329.99,187.5C330.84,187.5 331.7,187.24 332.58,186.71C333.46,186.19 333.9,185.43 333.9,184.45C333.9,183.66 333.57,183.09 332.92,182.73C332.27,182.37 331.5,182.11 330.63,181.94C329.75,181.78 328.89,181.69 328.04,181.69L310.38,181.69C309.86,181.82 309.58,181.74 309.55,181.44C309.52,181.14 309.5,180.87 309.5,180.6C309.5,177.98 309.58,175.41 309.74,172.89L309.83,171.37C309.93,169.34 309.99,167.27 309.99,165.18C309.99,163.54 309.91,161.94 309.75,160.37C309.59,158.8 309.51,157.23 309.51,155.65L309.51,154.96L333.23,152.99C334.01,152.92 334.86,152.58 335.77,151.96C336.68,151.34 337.14,150.6 337.14,149.75C337.14,149.68 337.12,149.57 337.09,149.41L337.07,149.3C337.05,149.2 337.04,149.12 337.04,149.07C336.84,148.87 336.6,148.58 336.31,148.19C336.02,147.8 335.66,147.37 335.24,146.91C334.82,146.45 334.36,146.06 333.87,145.73C333.38,145.4 332.88,145.24 332.36,145.24C331.71,145.24 331.32,145.39 331.19,145.68C331.06,145.97 331.01,146.34 331.04,146.76C331.07,147.18 331.07,147.6 331.04,147.99C331.01,148.38 330.83,148.61 330.5,148.68C327.51,149.27 324.43,149.65 321.28,149.81C318.12,149.97 315.05,150.06 312.06,150.06C311.02,150.06 310.06,149.96 309.18,149.77C308.3,149.58 307.44,149.36 306.59,149.13C305.74,148.9 304.88,148.67 304,148.44C303.12,148.21 302.26,148.1 301.41,148.1C301.28,148.1 301.04,148.12 300.68,148.15L300.51,148.16C300.24,148.18 300.06,148.19 299.95,148.19C299.69,148.52 299.54,148.83 299.51,149.12C299.48,149.41 299.46,149.73 299.46,150.05C299.46,150.77 299.59,151.33 299.85,151.72C300.11,152.11 300.44,152.47 300.83,152.8C301.22,153.13 301.63,153.49 302.05,153.88C302.47,154.27 302.91,154.76 303.37,155.35C303.96,156.2 304.35,157.18 304.54,158.3C304.74,159.41 304.87,160.54 304.93,161.69C305,162.84 305,163.98 304.93,165.13C304.86,166.28 304.83,167.31 304.83,168.23C304.83,169.08 304.86,170.13 304.93,171.37C305,172.61 305.01,173.88 304.98,175.15C304.95,176.43 304.83,177.66 304.64,178.83C304.44,180.01 304.15,180.96 303.76,181.68C301.87,181.81 299.82,181.97 297.61,182.17C295.4,182.37 293.15,182.56 290.88,182.76C288.6,182.96 286.33,183.09 284.05,183.15C281.77,183.22 279.66,183.22 277.71,183.15C277.12,183.02 276.78,183.15 276.69,183.54C276.59,183.93 276.54,184.26 276.54,184.52C276.54,184.98 276.59,185.37 276.69,185.7C276.79,186.03 277.13,186.29 277.71,186.49C278.36,186.62 278.9,186.7 279.32,186.74C279.74,186.77 280.17,186.81 280.59,186.84C281.01,186.87 281.44,186.89 281.86,186.89L283.37,186.89C286.43,186.89 289.47,186.82 292.5,186.69C295.53,186.56 298.57,186.49 301.63,186.49C302.15,186.49 302.57,186.54 302.9,186.64C303.23,186.74 303.39,187.08 303.39,187.67C303.39,190.09 303.15,192.47 302.66,194.79C302.17,197.12 301.55,199.41 300.81,201.67C300.06,203.93 299.2,206.14 298.22,208.3C297.24,210.46 296.27,212.59 295.29,214.69C294.9,215.41 294.51,216.03 294.12,216.56C293.73,217.08 293.37,217.59 293.05,218.08C292.73,218.57 292.45,219.13 292.22,219.75C291.99,220.37 291.88,221.17 291.88,222.16C291.88,222.55 291.9,222.86 291.93,223.09C291.96,223.32 292.11,223.6 292.37,223.93L295.29,223.93L295.29,223.95Z"/> </clipPath> <g clip-path="url(#_clip2)"> <rect x="271.51" y="140.24" width="284.75" height="89.73" style="fill:rgb(232,51,109);"/> </g> </g> <g transform="matrix(0.968549,0,0,0.968549,54.58,-137.722)"> <path d="M521.96,204.52C522.3,202.98 522.62,201.63 522.92,200.48C523.22,199.32 523.59,198.25 524.03,197.25C524.47,196.25 525.07,195.29 525.85,194.36C526.62,193.43 527.69,192.39 529.03,191.23C528.9,192.77 528.69,194.13 528.42,195.32C528.15,196.51 527.75,197.61 527.21,198.64C526.67,199.67 525.98,200.66 525.14,201.63C524.3,202.6 523.24,203.56 521.96,204.52ZM527.29,224.97C528.4,224.97 529.75,224.84 531.35,224.58C532.95,224.32 534.63,223.93 536.39,223.4C538.15,222.88 539.93,222.22 541.72,221.44C543.51,220.66 545.11,219.76 546.51,218.75C547.91,217.74 549.05,216.6 549.93,215.32C550.81,214.05 551.25,212.69 551.25,211.26C551.25,210.74 551.18,210.22 551.05,209.69C550.92,209.17 550.53,208.91 549.88,208.91C549.23,208.91 548.61,209.15 548.02,209.64C547.43,210.13 546.88,210.7 546.36,211.35C545.84,212 545.33,212.64 544.84,213.26C544.35,213.88 543.94,214.35 543.62,214.68C541.27,216.57 538.7,217.94 535.89,218.79C533.09,219.64 530.15,220.06 527.08,220.06C526.04,220.06 525.07,220.01 524.19,219.91C523.31,219.81 522.53,219.55 521.84,219.13C521.16,218.71 520.62,218.13 520.23,217.42C519.84,216.7 519.64,215.76 519.64,214.58L519.64,214.38C519.64,214.18 519.71,213.86 519.84,213.4C519.97,212.94 520.07,212.62 520.13,212.42C522.22,210.66 524.08,208.98 525.71,207.38C527.34,205.78 528.73,204.07 529.87,202.24C531.01,200.41 531.86,198.42 532.41,196.27C532.96,194.12 533.24,191.64 533.24,188.83C533.24,188.57 533.22,188.1 533.19,187.41C533.16,186.72 533.14,186.25 533.14,185.99C532.88,185.27 532.57,184.6 532.21,183.98C531.85,183.36 531.25,183.05 530.4,183.05C528.12,183.05 526.21,183.56 524.68,184.57C523.15,185.58 521.89,186.87 520.91,188.44C519.93,190.01 519.17,191.7 518.61,193.53C518.06,195.36 517.58,197.06 517.19,198.62C517.06,199.01 516.88,199.75 516.65,200.82C516.42,201.9 516.16,203.02 515.87,204.2C515.58,205.38 515.28,206.47 514.99,207.48C514.7,208.49 514.48,209.19 514.35,209.59L513.86,216.35C514.71,219.81 516.29,222.11 518.61,223.25C520.94,224.4 523.83,224.97 527.29,224.97ZM480.64,224.97C481.48,224.97 482.21,224.95 482.82,224.92C483.43,224.89 484.03,224.8 484.61,224.67C485.19,224.54 485.84,224.39 486.55,224.22C487.26,224.05 488.13,223.81 489.17,223.48C489.95,223.15 491.16,222.67 492.8,222.04C494.45,221.41 496.14,220.77 497.89,220.11C499.63,219.45 501.27,218.82 502.78,218.23C504.3,217.64 505.28,217.27 505.74,217.14C507.36,216.41 509.05,215.52 510.83,214.46C512.61,213.4 514.24,212.18 515.72,210.79C517.21,209.4 518.45,207.85 519.45,206.13C520.45,204.41 520.95,202.5 520.95,200.38C520.95,199.72 520.84,199.04 520.61,198.35C520.38,197.66 519.85,197.31 519.01,197.31C518.11,197.31 517.43,197.64 516.97,198.3C516.52,198.96 516.11,199.74 515.76,200.63C515.4,201.52 515.08,202.43 514.79,203.35C514.5,204.27 514.16,205 513.77,205.53C512.09,207.45 509.83,209.28 506.99,211.03C504.15,212.78 501.13,214.28 497.93,215.54C494.73,216.8 491.55,217.8 488.38,218.56C485.21,219.32 482.47,219.7 480.14,219.7C480.01,219.7 479.56,219.68 478.78,219.65C478,219.62 477.52,219.6 477.33,219.6C476.81,219.27 476.25,218.94 475.63,218.61C475.02,218.28 474.64,217.78 474.52,217.12L474.52,216.23C474.52,215.83 474.5,215.44 474.47,215.04C474.44,214.64 474.42,214.25 474.42,213.85L474.42,212.96C474.42,210.85 474.66,209.03 475.15,207.51C475.63,205.99 476.31,204.57 477.19,203.25C478.06,201.93 479.08,200.62 480.24,199.34C481.4,198.05 482.66,196.58 484.02,194.93C484.08,194.8 484.23,194.62 484.46,194.39C484.69,194.16 484.83,194.01 484.9,193.94L485.29,193.94C485.81,194.07 486.23,194.3 486.55,194.63C486.87,194.96 487.18,195.29 487.47,195.62C487.76,195.95 488.1,196.23 488.49,196.46C488.88,196.69 489.33,196.81 489.85,196.81C490.69,196.81 491.43,196.64 492.08,196.31C492.73,195.98 493.05,195.39 493.05,194.53C493.05,193.74 492.9,192.86 492.61,191.9C492.32,190.94 491.9,190.03 491.35,189.18C490.8,188.33 490.17,187.59 489.46,187C488.75,186.41 487.94,186.11 487.04,186.11C486.59,186.11 486.25,186.16 486.02,186.26C485.79,186.36 485.6,186.49 485.44,186.66C485.28,186.83 485.08,186.99 484.86,187.16C484.63,187.33 484.36,187.51 484.04,187.7C482.81,187.24 481.37,187.6 479.73,188.79C478.09,189.98 476.47,191.66 474.88,193.84C473.3,196.02 471.91,198.63 470.71,201.67C469.51,204.71 468.76,207.91 468.43,211.28C468.56,213.53 468.83,215.49 469.25,217.18C469.67,218.87 470.33,220.28 471.24,221.44C472.14,222.6 473.36,223.47 474.87,224.07C476.39,224.67 478.31,224.97 480.64,224.97ZM429.66,224.97C430.08,224.97 430.49,224.92 430.88,224.82C431.27,224.72 431.61,224.57 431.9,224.37C432.19,224.17 432.31,223.87 432.24,223.47C432.3,222.93 432.43,222.06 432.63,220.86C432.82,219.66 433.04,218.38 433.26,217.05C433.49,215.71 433.73,214.44 433.99,213.24C434.25,212.04 434.44,211.2 434.57,210.73C434.96,209.39 435.59,207.69 436.47,205.61C437.35,203.54 438.39,201.49 439.59,199.49C440.79,197.48 442.16,195.78 443.68,194.37C445.21,192.96 446.75,192.26 448.31,192.26L448.31,195.57L444.51,215.04L444.51,216.34C444.51,217.41 444.56,218.41 444.66,219.35C444.76,220.29 444.98,221.14 445.34,221.91C445.7,222.68 446.23,223.3 446.95,223.77C447.66,224.24 448.64,224.47 449.87,224.47C451.1,224.47 452.6,224.24 454.35,223.77C456.1,223.3 457.91,222.67 459.76,221.86C461.61,221.06 463.49,220.09 465.41,218.95C467.33,217.81 469.01,216.61 470.48,215.34C471.94,214.07 473.14,212.71 474.08,211.28C475.02,209.84 475.49,208.39 475.49,206.91C475.49,206.44 475.34,206.06 475.05,205.76C474.76,205.46 474.38,205.31 473.93,205.31L473.54,205.31C472.24,206.85 470.71,208.44 468.96,210.08C467.21,211.72 465.32,213.17 463.31,214.45C461.3,215.72 459.2,216.78 457.03,217.61C454.85,218.45 452.76,218.86 450.75,218.86L450.75,210.73L454.45,193.57L454.45,193.17C454.45,193.04 454.47,192.95 454.5,192.92L454.52,192.89C454.54,192.85 454.55,192.77 454.55,192.67C454.55,190.8 454.01,189.26 452.94,188.05C451.87,186.85 450.39,186.24 448.51,186.24C447.6,186.24 446.64,186.47 445.64,186.94C444.63,187.41 443.77,187.98 443.06,188.65C442.87,188.92 442.44,189.35 441.79,189.95C441.14,190.55 440.44,191.19 439.7,191.86C438.95,192.53 438.25,193.16 437.61,193.77C436.96,194.37 436.51,194.77 436.25,194.97L436.25,188.14C436.25,187.54 435.91,187.05 435.23,186.68C434.55,186.31 433.95,186.13 433.43,186.13C433.24,186.13 432.88,186.15 432.36,186.18C431.84,186.21 431.48,186.36 431.29,186.63L429.34,199.98L429.34,202.79L426,222.86L426,223.16C426,223.96 426.29,224.46 426.88,224.67C427.46,224.87 428.05,224.97 428.63,224.97L429.66,224.97ZM382.57,219.86L382.57,217.11L384.94,205.19C385.01,204.99 385.12,204.73 385.28,204.43C385.44,204.12 385.64,203.8 385.87,203.46C386.1,203.12 386.31,202.83 386.51,202.59C386.71,202.35 386.84,202.23 386.9,202.23C387.23,201.89 387.84,201.25 388.72,200.3C389.6,199.35 390.56,198.33 391.58,197.24C392.6,196.15 393.57,195.15 394.49,194.24C395.41,193.33 396.07,192.7 396.46,192.36C396.59,192.29 396.87,192.26 397.3,192.26L398.14,192.26C399.13,192.26 399.91,192.33 400.51,192.46C401.1,192.6 401.82,193.04 402.68,193.78C402.68,193.92 402.7,194.12 402.73,194.39L402.75,194.54C402.77,194.74 402.78,194.89 402.78,195C402.78,196.97 402.53,198.89 402.04,200.75C401.55,202.62 401.27,204.57 401.2,206.61C400.41,207.83 399.29,209.21 397.85,210.73C396.4,212.26 394.8,213.7 393.02,215.06C391.24,216.42 389.44,217.56 387.6,218.47C385.75,219.4 384.08,219.86 382.57,219.86ZM381.79,224.97C383.56,224.97 385.3,224.61 387,223.88C388.7,223.15 390.37,222.29 392.01,221.3C393.65,220.31 395.22,219.21 396.73,218.02C398.24,216.83 399.65,215.7 400.96,214.64C400.83,215.9 400.85,217.11 401.01,218.27C401.17,219.43 401.49,220.42 401.94,221.25C402.4,222.08 403.09,222.74 404,223.24C404.92,223.74 406.1,223.99 407.54,223.99C408.46,223.99 409.49,223.87 410.64,223.64C411.79,223.41 412.95,223.09 414.13,222.7C415.31,222.3 416.46,221.89 417.57,221.46C418.68,221.03 419.7,220.55 420.62,220.02C421.14,219.82 422.01,219.39 423.22,218.73C424.43,218.07 425.73,217.37 427.1,216.64C428.48,215.91 429.77,215.25 430.98,214.65C432.19,214.05 433.03,213.59 433.49,213.26C433.82,212.99 434,212.71 434.03,212.41C434.06,212.11 434.08,211.8 434.08,211.47C434.08,210.81 433.87,210.28 433.44,209.88C433.01,209.48 432.47,209.28 431.82,209.28C431.75,209.28 431.64,209.3 431.48,209.33L431.37,209.35C431.27,209.37 431.19,209.38 431.14,209.38L412.47,218.13C411.81,218.4 411.18,218.54 410.55,218.58C409.92,218.62 409.29,218.63 408.63,218.63C408.5,218.63 408.17,218.61 407.65,218.58C407.13,218.55 406.8,218.53 406.67,218.53C406.6,218.4 406.52,218.02 406.42,217.39C406.32,216.76 406.24,216.38 406.17,216.25L406.17,215.65C406.17,213.86 406.35,212.15 406.71,210.53C407.07,208.91 407.46,207.27 407.89,205.61C408.32,203.95 408.71,202.31 409.07,200.69C409.43,199.07 409.61,197.39 409.61,195.67C409.61,194.41 409.5,193.15 409.27,191.89C409.04,190.63 408.65,189.5 408.09,188.51C407.53,187.52 406.78,186.7 405.83,186.07C404.88,185.44 403.68,185.13 402.24,185.13L400.47,185.13C396.54,185.59 392.92,186.87 389.61,188.96C386.3,191.05 383.58,193.63 381.45,196.71C379.32,199.79 377.85,203.25 377.03,207.1C376.21,210.94 376.36,214.85 377.47,218.83L377.47,221.91C377.8,222.97 378.35,223.75 379.14,224.25C379.93,224.72 380.81,224.97 381.79,224.97ZM357.73,224.97C358.65,224.97 359.97,224.67 361.7,224.07C363.43,223.47 365.33,222.67 367.39,221.66C369.45,220.66 371.56,219.54 373.72,218.3C375.88,217.06 377.84,215.81 379.61,214.54C381.38,213.27 382.82,212.03 383.93,210.83C385.04,209.63 385.6,208.62 385.6,207.82C385.6,207.62 385.57,207.32 385.5,206.92C385.43,206.52 385.3,206.32 385.11,206.32L382.17,206.32C381.65,206.72 381.16,207.12 380.7,207.52C380.226,207.902 379.788,208.235 379.387,208.525C379.01,208.798 378.665,209.031 378.35,209.23C377.96,209.5 377.55,209.78 377.12,210.08C376.69,210.38 376.35,210.77 376.09,211.23L367.46,216.65C366.74,216.78 366.05,217 365.4,217.3C364.75,217.6 364.08,217.92 363.39,218.25C362.7,218.58 362.03,218.89 361.38,219.15C360.73,219.41 360.01,219.55 359.22,219.55C358.89,219.55 358.55,219.53 358.19,219.5C357.83,219.47 357.68,219.15 357.75,218.55L357.75,215.94C357.75,214.6 357.9,213.11 358.19,211.48C358.48,209.84 358.78,208.2 359.07,206.56C359.36,204.92 359.66,203.3 359.95,201.69C360.24,200.08 360.39,198.65 360.39,197.38C360.39,195.98 360.14,194.89 359.65,194.12C359.16,193.35 358.33,192.63 357.15,191.96C356.1,191.42 354.89,190.92 353.52,190.46C352.15,190 350.85,189.56 349.64,189.16C348.43,188.76 347.42,188.39 346.6,188.06C345.78,187.73 345.41,187.42 345.47,187.16C344.82,187.16 344.26,187.39 343.8,187.86C343.34,188.33 342.95,188.88 342.62,189.52C342.29,190.16 342.05,190.84 341.88,191.58C341.72,192.32 341.63,192.95 341.63,193.49C341.63,194.03 341.65,194.48 341.68,194.84C341.71,195.21 341.86,195.63 342.12,196.09C341.4,197.9 340.88,199.55 340.55,201.06C340.22,202.56 339.8,203.99 339.27,205.32C338.75,206.66 338.04,208 337.16,209.33C336.28,210.67 334.92,212.04 333.09,213.44C333.02,214.64 333.06,215.56 333.19,216.2C333.32,216.84 333.5,217.3 333.73,217.6C333.96,217.9 334.19,218.08 334.42,218.15C334.65,218.22 334.8,218.25 334.86,218.25C337.41,216.44 339.23,214.6 340.31,212.73C341.39,210.86 342.21,208.98 342.76,207.11C343.31,205.24 343.87,203.43 344.43,201.69C344.99,199.95 345.98,198.31 347.42,196.77C347.42,196.84 347.89,197.09 348.84,197.52C349.79,197.95 350.82,198.46 351.93,199.02C353.04,199.59 354.07,200.11 355.02,200.57C355.97,201.04 356.44,201.31 356.44,201.37C356.44,202.17 356.21,203.24 355.75,204.58C355.29,205.92 354.77,207.29 354.18,208.69C353.59,210.09 353.07,211.47 352.61,212.8C352.15,214.14 351.92,215.17 351.92,215.91C351.92,216.91 352,217.93 352.17,218.97C352.33,220.01 352.64,220.96 353.1,221.83C353.56,222.7 354.15,223.44 354.87,224.04C355.61,224.67 356.56,224.97 357.73,224.97ZM295.29,223.95C295.97,223.95 296.44,223.75 296.71,223.36L302.37,212.85L308.03,194.18L309.01,186.52L310.86,186.52C311.38,186.52 311.92,186.5 312.47,186.47C313.02,186.44 313.49,186.42 313.89,186.42C316.62,186.42 319.34,186.6 322.04,186.96C324.74,187.32 327.39,187.5 329.99,187.5C330.84,187.5 331.7,187.24 332.58,186.71C333.46,186.19 333.9,185.43 333.9,184.45C333.9,183.66 333.57,183.09 332.92,182.73C332.27,182.37 331.5,182.11 330.63,181.94C329.75,181.78 328.89,181.69 328.04,181.69L310.38,181.69C309.86,181.82 309.58,181.74 309.55,181.44C309.52,181.14 309.5,180.87 309.5,180.6C309.5,177.98 309.58,175.41 309.74,172.89L309.83,171.37C309.93,169.34 309.99,167.27 309.99,165.18C309.99,163.54 309.91,161.94 309.75,160.37C309.59,158.8 309.51,157.23 309.51,155.65L309.51,154.96L333.23,152.99C334.01,152.92 334.86,152.58 335.77,151.96C336.68,151.34 337.14,150.6 337.14,149.75C337.14,149.68 337.12,149.57 337.09,149.41L337.07,149.3C337.05,149.2 337.04,149.12 337.04,149.07C336.84,148.87 336.6,148.58 336.31,148.19C336.02,147.8 335.66,147.37 335.24,146.91C334.82,146.45 334.36,146.06 333.87,145.73C333.38,145.4 332.88,145.24 332.36,145.24C331.71,145.24 331.32,145.39 331.19,145.68C331.06,145.97 331.01,146.34 331.04,146.76C331.07,147.19 331.07,147.6 331.04,147.99C331.01,148.38 330.83,148.61 330.5,148.68C327.51,149.27 324.43,149.65 321.28,149.81C318.12,149.97 315.05,150.06 312.06,150.06C311.02,150.06 310.06,149.96 309.18,149.77C308.3,149.57 307.44,149.36 306.59,149.13C305.74,148.9 304.88,148.67 304,148.44C303.12,148.21 302.26,148.1 301.41,148.1C301.28,148.1 301.04,148.12 300.68,148.15L300.51,148.17C300.24,148.19 300.06,148.2 299.95,148.2C299.69,148.53 299.54,148.84 299.51,149.13C299.48,149.42 299.46,149.74 299.46,150.06C299.46,150.78 299.59,151.34 299.85,151.73C300.11,152.12 300.44,152.48 300.83,152.81C301.22,153.14 301.63,153.5 302.05,153.89C302.47,154.28 302.91,154.77 303.37,155.36C303.96,156.21 304.35,157.19 304.54,158.31C304.73,159.43 304.87,160.55 304.93,161.7C305,162.85 305,163.99 304.93,165.14C304.86,166.29 304.83,167.32 304.83,168.24C304.83,169.09 304.86,170.14 304.93,171.38C305,172.62 305.01,173.89 304.98,175.16C304.95,176.44 304.83,177.67 304.64,178.84C304.45,180.01 304.15,180.97 303.76,181.69C301.87,181.82 299.82,181.98 297.61,182.18C295.4,182.38 293.15,182.57 290.88,182.77C288.61,182.97 286.33,183.1 284.05,183.16C281.77,183.22 279.66,183.23 277.71,183.16C277.12,183.03 276.78,183.16 276.69,183.55C276.6,183.94 276.54,184.27 276.54,184.53C276.54,184.99 276.59,185.38 276.69,185.71C276.79,186.04 277.13,186.3 277.71,186.5C278.36,186.63 278.9,186.71 279.32,186.75C279.74,186.79 280.17,186.82 280.59,186.85C281.01,186.88 281.44,186.9 281.86,186.9L283.37,186.9C286.43,186.9 289.47,186.83 292.5,186.7C295.53,186.57 298.57,186.5 301.63,186.5C302.15,186.5 302.57,186.55 302.9,186.65C303.23,186.75 303.39,187.09 303.39,187.68C303.39,190.1 303.15,192.48 302.66,194.8C302.17,197.12 301.55,199.42 300.81,201.68C300.07,203.94 299.2,206.15 298.22,208.31C297.24,210.47 296.27,212.6 295.29,214.7C294.9,215.42 294.51,216.04 294.12,216.57C293.73,217.1 293.37,217.6 293.05,218.09C292.73,218.58 292.45,219.14 292.22,219.76C291.99,220.38 291.88,221.18 291.88,222.17C291.88,222.56 291.9,222.87 291.93,223.1C291.96,223.33 292.11,223.61 292.37,223.94L295.29,223.94L295.29,223.95Z" style="fill:rgb(232,51,109);fill-rule:nonzero;"/> </g> </g> <g id="RF--blanc-" serif:id="RF (blanc)" transform="matrix(1.2878,0,0,1.2878,-39.2233,-50.5726)"> <g transform="matrix(0.0375385,0,0,0.0375385,-7.08087,4.02306)"> <path d="M2145,1884C2156,1873 2167,1862 2177,1850C2197,1827 2217,1806 2240,1786C2247,1780 2254,1774 2261,1770C2263,1768 2263,1764 2265,1762C2256,1766 2250,1773 2240,1777C2238,1777 2236,1775 2238,1773C2245,1768 2252,1763 2258,1758L2257,1758C2255,1758 2255,1756 2255,1754C2230,1750 2212,1767 2195,1782C2191,1784 2187,1780 2186,1780C2158,1789 2137,1814 2109,1825L2109,1821C2098,1825 2087,1832 2075,1834C2058,1838 2043,1836 2028,1836C2005,1838 1982,1843 1959,1848C1958,1848 1958,1848 1957,1849C1945,1852 1933,1857 1922,1863L1918,1867C1914,1871 1910,1876 1905,1878C1893,1884 1884,1894 1874,1903C1873,1904 1872,1904 1871,1904C1861,1914 1851,1924 1841,1933C1840,1934 1837,1934 1835,1934C1835,1933 1836,1933 1836,1932C1838,1929 1839,1927 1841,1924L1847,1915C1850,1911 1852,1907 1855,1904C1856,1903 1856,1902 1855,1902C1854,1901 1853,1901 1852,1901C1861,1892 1873,1884 1884,1877C1883,1877 1881,1876 1882,1875C1883,1873 1884,1872 1885,1870C1885,1869 1885,1869 1886,1868C1886,1867 1885,1867 1885,1866L1876,1872C1871,1876 1868,1884 1861,1884L1858,1884C1857,1884 1856,1884 1856,1883L1856,1882C1856,1881 1857,1881 1857,1880C1857,1879 1858,1879 1858,1878C1858,1878 1858,1877 1859,1877C1859,1876 1860,1875 1860,1875C1860,1874 1861,1874 1861,1873C1862,1872 1863,1870 1863,1869C1863,1868 1864,1868 1864,1867C1865,1866 1865,1865 1866,1864C1867,1862 1866,1861 1865,1861C1868,1856 1873,1853 1878,1850L1877,1850C1884,1846 1892,1842 1899,1838L1902,1835C1891,1839 1882,1844 1872,1850C1872,1850 1870,1851 1869,1852C1869,1852 1867,1853 1864,1850L1864,1849C1866,1845 1872,1843 1875,1840C1877,1840 1879,1840 1879,1842C1940,1795 2023,1806 2093,1782C2099,1778 2104,1774 2110,1771C2119,1767 2127,1758 2138,1752C2153,1741 2164,1727 2170,1709C2170,1707 2168,1705 2168,1705C2143,1731 2115,1752 2085,1767C2045,1788 2002,1784 1960,1790C1962,1786 1966,1786 1969,1786C1969,1780 1973,1778 1977,1775L1983,1775C1985,1775 1985,1771 1987,1771C1991,1771 1997,1769 1995,1769C1989,1761 1978,1775 1969,1769C1973,1765 1971,1760 1975,1758L1983,1758C1983,1754 1987,1750 1987,1750C2015,1733 2042,1720 2068,1705C2062,1705 2059,1711 2053,1707C2057,1707 2053,1701 2057,1701C2078,1695 2095,1684 2116,1676C2108,1676 2103,1682 2095,1676C2099,1674 2101,1670 2106,1670L2106,1664C2106,1662 2108,1662 2110,1662C2108,1662 2106,1660 2106,1660C2108,1656 2114,1658 2117,1654C2115,1654 2111,1654 2111,1652C2117,1644 2126,1643 2136,1641C2134,1637 2128,1641 2128,1637C2128,1635 2130,1635 2132,1635L2128,1635C2124,1633 2126,1629 2126,1627C2137,1614 2137,1597 2143,1582C2141,1582 2139,1582 2139,1580C2120,1601 2090,1608 2062,1616L2049,1616C2040,1620 2026,1620 2017,1614C2009,1610 2006,1605 1998,1599C1983,1590 1968,1582 1951,1576C1904,1561 1855,1553 1806,1555C1827,1544 1850,1543 1872,1536C1904,1527 1934,1515 1968,1517C1962,1515 1955,1517 1949,1517C1923,1515 1896,1523 1868,1528C1849,1532 1832,1539 1813,1543C1802,1547 1796,1558 1783,1556L1783,1550C1802,1527 1825,1505 1855,1503C1889,1497 1921,1503 1955,1507C1980,1509 2002,1515 2027,1520C2036,1520 2038,1535 2046,1537C2057,1541 2069,1537 2080,1545C2080,1541 2078,1537 2080,1534C2088,1526 2097,1536 2105,1532C2120,1523 2092,1506 2084,1492C2084,1490 2086,1488 2086,1488C2101,1501 2112,1516 2131,1526C2140,1530 2163,1535 2159,1524C2150,1503 2131,1486 2115,1467L2115,1459C2111,1459 2111,1457 2109,1455L2109,1447C2101,1443 2103,1436 2100,1430C2094,1421 2098,1407 2094,1396C2090,1385 2088,1375 2086,1364C2080,1332 2073,1304 2069,1273C2065,1237 2090,1209 2107,1177C2120,1154 2135,1132 2160,1117C2166,1094 2181,1075 2196,1057C2211,1039 2236,1027 2254,1019C2280,1007 2304,1000 2304,1000L1000,1000L1000,2000L1927,2000C1963,1974 1999,1962 2049,1937C2073,1927 2127,1902 2145,1884M1855,1748C1851,1748 1844,1750 1846,1746C1848,1737 1861,1737 1869,1733C1873,1731 1878,1727 1882,1729C1886,1735 1891,1733 1895,1737C1883,1748 1868,1743 1855,1748M1565,1707C1565,1707 1563,1705 1563,1703C1588,1671 1606,1641 1624,1607C1649,1594 1669,1575 1688,1554C1720,1520 1754,1490 1794,1471C1809,1465 1828,1467 1843,1473C1837,1481 1828,1479 1820,1484C1818,1484 1816,1484 1814,1482C1816,1480 1816,1478 1816,1476C1797,1497 1771,1506 1756,1531C1745,1550 1737,1574 1713,1580C1705,1582 1715,1574 1711,1576C1652,1612 1611,1656 1565,1707M1722,1582C1720,1586 1718,1586 1716,1590C1714,1594 1712,1596 1708,1598C1706,1598 1704,1598 1704,1596C1706,1588 1712,1581 1719,1579C1722,1578 1722,1580 1722,1582M1810,1865C1809,1867 1807,1869 1805,1871C1807,1871 1809,1873 1807,1874C1803,1878 1798,1882 1793,1884L1790,1884C1788,1886 1785,1888 1783,1891C1781,1893 1770,1892 1773,1889C1778,1885 1782,1880 1787,1876C1790,1874 1793,1871 1795,1868C1796,1866 1797,1865 1799,1864C1802,1862 1812,1861 1810,1865M1776,1850C1768,1855 1761,1860 1754,1865C1746,1870 1737,1873 1729,1877C1728,1876 1727,1876 1726,1876C1719,1880 1713,1885 1707,1891L1697,1901C1696,1902 1696,1903 1694,1904C1693,1905 1690,1905 1690,1903C1689,1904 1688,1904 1687,1905C1686,1906 1685,1906 1684,1907L1682,1907C1680,1909 1677,1911 1675,1913C1671,1917 1667,1920 1664,1925L1664,1926L1663,1927C1663,1927 1663,1928 1662,1928C1662,1929 1661,1929 1661,1930C1661,1930 1660,1931 1659,1931L1658,1930C1658,1930 1658,1929 1657,1929C1656,1928 1656,1927 1655,1926L1655,1925C1657,1923 1659,1921 1661,1918C1662,1917 1662,1916 1663,1916C1664,1915 1665,1913 1666,1912C1666,1911 1667,1911 1667,1910C1669,1907 1671,1905 1673,1902L1674,1901C1675,1900 1676,1898 1677,1897C1678,1896 1678,1895 1679,1893L1679,1892C1680,1890 1680,1889 1681,1888L1681,1887C1681,1886 1681,1886 1682,1885C1682,1884 1682,1883 1683,1882L1683,1881C1685,1877 1688,1874 1691,1871L1690,1871C1687,1873 1685,1875 1683,1877C1681,1879 1677,1876 1680,1874C1682,1873 1683,1871 1684,1870C1687,1867 1690,1863 1694,1860C1696,1858 1698,1857 1700,1856L1701,1855C1702,1853 1704,1852 1705,1850C1723,1833 1754,1833 1777,1822C1786,1818 1798,1824 1807,1822C1813,1822 1818,1822 1824,1826C1807,1829 1792,1840 1776,1850M1815,1718C1813,1716 1821,1718 1823,1714L1808,1714C1806,1714 1806,1712 1806,1710C1797,1712 1785,1716 1776,1718C1763,1722 1751,1731 1736,1735C1715,1743 1698,1760 1676,1767C1674,1767 1674,1765 1674,1763C1676,1757 1683,1755 1687,1750C1687,1748 1687,1746 1685,1746C1700,1725 1721,1714 1740,1697L1740,1691C1746,1683 1755,1680 1759,1670C1761,1664 1769,1657 1778,1653C1776,1651 1772,1651 1772,1647C1764,1647 1757,1651 1749,1645C1753,1642 1757,1640 1761,1638C1759,1638 1758,1637 1757,1635C1755,1631 1761,1627 1766,1626C1774,1624 1783,1624 1789,1618C1776,1616 1761,1622 1747,1614C1756,1589 1772,1569 1794,1557C1796,1557 1800,1557 1800,1559C1800,1568 1794,1576 1785,1578C1800,1582 1815,1582 1830,1589C1828,1593 1824,1591 1822,1591C1831,1597 1843,1593 1852,1600C1846,1606 1841,1600 1835,1600C1894,1617 1956,1630 2005,1668C1963,1689 1920,1698 1875,1708C1869,1708 1866,1708 1860,1706C1860,1708 1860,1712 1858,1712C1850,1712 1845,1712 1839,1716C1832,1722 1821,1724 1815,1718" style="fill:white;fill-rule:nonzero;"/> </g> <g transform="matrix(0.0375385,0,0,0.0375385,-7.08087,4.02306)"> <path d="M3756,1000L2681,1000C2681,1000 2683,1000 2691,1005C2700,1010 2711,1016 2718,1019C2732,1026 2745,1035 2754,1049C2758,1055 2763,1066 2760,1074C2756,1083 2754,1099 2745,1102C2734,1108 2719,1108 2705,1106C2697,1106 2690,1104 2682,1102C2710,1113 2737,1127 2756,1153C2758,1157 2765,1159 2773,1159C2775,1159 2775,1163 2775,1165C2771,1169 2767,1171 2769,1176L2775,1176C2784,1172 2783,1153 2796,1159C2805,1165 2809,1178 2804,1187C2796,1195 2789,1200 2781,1206C2779,1210 2779,1215 2781,1219C2787,1227 2789,1234 2790,1242C2796,1255 2798,1270 2803,1284C2811,1312 2818,1341 2816,1369C2816,1384 2808,1397 2814,1412C2818,1427 2827,1438 2835,1452C2843,1463 2850,1471 2856,1482C2867,1501 2888,1520 2879,1542C2873,1555 2853,1553 2839,1561C2828,1570 2837,1586 2843,1595C2852,1612 2832,1623 2818,1628C2822,1634 2829,1632 2831,1636C2833,1645 2842,1651 2837,1661C2829,1672 2807,1678 2818,1695C2826,1708 2821,1723 2816,1737C2810,1752 2797,1762 2782,1765C2771,1769 2757,1769 2746,1767C2742,1765 2738,1763 2735,1763C2703,1759 2671,1750 2639,1750C2630,1752 2620,1754 2613,1757C2605,1763 2597,1770 2590,1777C2589,1779 2587,1780 2586,1782C2585,1783 2584,1784 2584,1785L2582,1787C2576,1794 2572,1801 2567,1809C2567,1810 2566,1810 2566,1810C2566,1811 2565,1812 2564,1813C2558,1824 2553,1836 2550,1848C2537,1891 2543,1928 2552,1937C2554,1939 2614,1958 2656,1977C2676,1986 2689,1992 2701,2000L3756,2000L3756,1000Z" style="fill:white;fill-rule:nonzero;"/> </g> <g transform="matrix(0.0375385,0,0,0.0375385,-7.08087,4.02306)"> <path d="M2745,1366C2753,1368 2764,1368 2764,1372C2760,1387 2738,1391 2726,1406L2720,1406C2714,1410 2716,1419 2711,1419C2705,1417 2700,1419 2694,1421C2702,1429 2711,1434 2722,1432C2724,1432 2728,1436 2728,1440C2728,1440 2730,1440 2732,1438C2734,1438 2736,1438 2736,1440L2736,1448C2730,1456 2721,1452 2713,1454C2728,1458 2743,1458 2757,1454C2768,1450 2757,1431 2765,1422C2761,1422 2765,1416 2761,1416C2765,1412 2769,1407 2772,1405C2776,1405 2781,1403 2783,1399C2783,1395 2775,1393 2777,1390C2788,1382 2798,1371 2794,1360C2792,1354 2777,1354 2768,1350C2759,1346 2747,1350 2736,1352C2727,1352 2717,1358 2708,1360C2695,1364 2683,1371 2672,1379C2685,1373 2698,1371 2713,1368C2724,1366 2733,1364 2745,1366" style="fill:white;fill-rule:nonzero;"/> </g> <g transform="matrix(0.0375385,0,0,0.0375385,-7.08087,4.02306)"> <path d="M1000,3250L1000,2500L1228,2500C1310.67,2500 1375.33,2520 1422,2560C1469.33,2600 1493.33,2654.67 1494,2724C1494,2768.67 1483.67,2807.33 1463,2840C1442.33,2873.33 1413,2899.33 1375,2918L1609,3250L1428,3250L1229,2947L1152,2947L1152,3250L1000,3250ZM1152,2818L1237,2818C1269,2818 1293.67,2809.67 1311,2793C1329,2776.33 1338,2752.67 1338,2722C1338,2693.33 1329,2670.67 1311,2654C1293,2637.33 1268.33,2629.33 1237,2630L1152,2630L1152,2818ZM1715,3250L1715,2500L2150,2500L2150,2630L1866,2630L1866,2803L2107,2803L2107,2933L1866,2933L1866,3120L2150,3120L2150,3250L1715,3250ZM1862,2436L1982,2291L2138,2291L2000,2436L1862,2436ZM2335,3250L2335,2500L2582,2500C2664,2500 2728.33,2520 2775,2560C2822.33,2600 2846,2654.67 2846,2724C2846,2793.33 2822.33,2847.67 2775,2887C2727.67,2927 2663.33,2947 2582,2947L2487,2947L2487,3250L2335,3250ZM2487,2818L2588,2818C2620.67,2818 2646,2809.33 2664,2792C2682,2775.33 2691,2752 2691,2722C2691,2693.33 2681.67,2670.67 2663,2654C2645,2637.33 2620,2629.33 2588,2630L2487,2630L2487,2818ZM2968,2957L2968,2500L3120,2500L3120,2969C3120,3019 3133.33,3058.33 3160,3087C3186.67,3115 3223.67,3129 3271,3129C3317.67,3129 3354.33,3115 3381,3087C3407.67,3059 3421,3019.67 3421,2969L3421,2500L3573,2500L3573,2957C3573,3055.67 3546,3132.67 3492,3188C3438,3243.33 3364,3271 3270,3271C3176.67,3271 3103,3243.33 3049,3188C2995,3132 2968,3055 2968,2957ZM3771,3250L3771,2500L3983,2500C4061,2500 4122,2518 4166,2554C4210.67,2590 4233,2640 4233,2704C4233,2766 4206.67,2815.33 4154,2852C4193.33,2870 4223.67,2894 4245,2924C4266.33,2954.67 4277,2989.67 4277,3029C4277,3097.67 4252,3151.67 4202,3191C4152.67,3230.33 4085,3250 3999,3250L3771,3250ZM3922,3120L4008,3120C4043.33,3120 4071,3111.33 4091,3094C4111,3076 4121,3051.67 4121,3021C4121,2990.33 4111,2966.33 4091,2949C4071,2932.33 4043.33,2924 4008,2924L3922,2924L3922,3120ZM3922,2794L3986,2794C4014.67,2794 4037,2786.67 4053,2772C4069,2758 4077,2737.67 4077,2711C4077,2685.67 4069,2666 4053,2652C4037.67,2637.33 4015.33,2630 3986,2630L3922,2630L3922,2794ZM4442,3250L4442,2500L4593,2500L4593,3112L4877,3112L4877,3250L4442,3250ZM5021,3250L5021,2500L5172,2500L5172,3250L5021,3250ZM5357,3028C5337.67,2979.33 5328,2928.33 5328,2875C5328,2821.67 5337.67,2771 5357,2723C5376.33,2674.33 5403,2632 5437,2596C5471.67,2560 5513.67,2531.33 5563,2510C5613,2488.67 5666.67,2478 5724,2478C5781.33,2478 5835,2488.67 5885,2510C5935,2531.33 5977,2560 6011,2596C6045,2632 6071.67,2674.33 6091,2723C6110.33,2771 6120,2821.67 6120,2875C6120,2937.67 6107,2996.33 6081,3051C6055,3105.67 6019,3151.33 5973,3188L6018,3231C6070.67,3279 6122.67,3302.67 6174,3302C6195.33,3302 6213.33,3299.33 6228,3294L6228,3423C6204.67,3432.33 6178.33,3436.67 6149,3436C6068.33,3436 5990.67,3403.33 5916,3338L5827,3258C5794.33,3266.67 5760,3271 5724,3271C5666.67,3271 5613,3260.33 5563,3239C5513.67,3217.67 5471.67,3189.33 5437,3154C5403,3118 5376.33,3076 5357,3028ZM5552,2694C5506.67,2742.67 5483.67,2803 5483,2875C5483,2947 5506,3007.33 5552,3056C5597.33,3104.67 5655,3129 5725,3129C5771,3129 5812,3118 5848,3096C5884.67,3074 5913.33,3043.33 5934,3004C5954.67,2965.33 5965,2922.33 5965,2875C5965,2803 5942,2742.67 5896,2694C5850.67,2645.33 5793.33,2621 5724,2621C5654,2621 5596.33,2645.33 5551,2694L5552,2694ZM6262,2957L6262,2500L6414,2500L6414,2969C6414,3019 6427.33,3058.33 6454,3087C6480.67,3115 6517.67,3129 6565,3129C6611.67,3129 6648.33,3115 6675,3087C6701.67,3059 6715,3019.67 6715,2969L6715,2500L6867,2500L6867,2957C6867,3055.67 6840,3132.67 6786,3188C6732,3244 6658,3271.67 6564,3271C6470.67,3271 6397,3243.33 6343,3188C6289,3132 6262,3055 6262,2957ZM7065,3250L7065,2500L7500,2500L7500,2630L7216,2630L7216,2803L7457,2803L7457,2933L7216,2933L7216,3120L7500,3120L7500,3250L7065,3250ZM1000,4335L1000,3585L1435,3585L1435,3715L1152,3715L1152,3888L1393,3888L1393,4018L1152,4018L1152,4335L1000,4335ZM1579,4335L1579,3585L1807,3585C1889,3585 1954,3605 2002,3645C2049.33,3685 2073,3739.67 2073,3809C2073,3853.67 2062.67,3892.67 2042,3926C2021.33,3959.33 1992,3985 1954,4003L2188,4335L2007,4335L1808,4032L1731,4032L1731,4335L1579,4335ZM1731,3903L1816,3903C1848,3903 1873,3894.67 1891,3878C1909,3861.33 1917.67,3837.67 1917,3807C1917,3778.33 1908.33,3755.67 1891,3739C1873.67,3722.33 1848.67,3714.33 1816,3715L1731,3715L1731,3903ZM2231,4335L2514,3585L2712,3585L2995,4335L2834,4335L2762,4140L2463,4140L2392,4335L2231,4335ZM2510,4010L2716,4010L2613,3729L2510,4010ZM3121,4335L3121,3585L3315,3585L3649,4122L3649,3585L3800,3585L3800,4335L3606,4335L3272,3796L3272,4335L3121,4335ZM3957,3960C3957,3906.67 3966.67,3856 3986,3808C4005.33,3759.33 4032,3717 4066,3681C4100.67,3645 4142.67,3616.67 4192,3596C4242,3574.67 4296,3564 4354,3564C4420,3564 4480,3577.33 4534,3604C4588.67,3631.33 4633.33,3668.67 4668,3716L4549,3809C4527,3777.67 4499.33,3752.67 4466,3734C4432.67,3715.33 4395.33,3706 4354,3706C4284,3706 4226.33,3730.33 4181,3779C4135.67,3827.67 4112.67,3888 4112,3960C4112,4032 4135,4092.67 4181,4142C4226.33,4190.67 4284,4214.67 4354,4214C4395.33,4214 4432.67,4205 4466,4187C4499.33,4168.33 4527,4143 4549,4111L4668,4203C4638.67,4243.67 4602,4277 4558,4303C4514,4329 4465.33,4345.33 4412,4352L4319,4508L4185,4508L4279,4350C4215.67,4338.67 4159.33,4314.33 4110,4277C4060.67,4239.67 4022.67,4193.33 3996,4138C3969.33,4082.67 3956.33,4023.33 3957,3960ZM4712,4335L4995,3585L5193,3585L5476,4335L5315,4335L5244,4140L4945,4140L4873,4335L4712,4335ZM4992,4010L5197,4010L5094,3729L4992,4010ZM5602,4335L5602,3585L5754,3585L5754,4335L5602,4335ZM5906,4231L6016,4130C6038.67,4159.33 6064,4182 6092,4198C6120.67,4214 6150.33,4222 6181,4222C6211,4222 6234.33,4214.33 6251,4199C6268.33,4183.67 6277,4162.33 6277,4135C6277,4119 6272.33,4104.33 6263,4091C6253,4077.67 6240,4066.67 6224,4058C6208,4048.67 6189.67,4039.33 6169,4030C6148.33,4020 6127.33,4010.33 6106,4001C6084.67,3991.67 6064,3980.33 6044,3967C6023.33,3953.67 6005,3939 5989,3923C5973,3907 5960,3886.67 5950,3862C5940,3837.33 5935,3810.33 5935,3781C5935,3720.33 5957.67,3669 6003,3627C6048.33,3585 6105.67,3564 6175,3564C6279,3564 6366,3606 6436,3690L6325,3790C6277,3727.33 6227.33,3696 6176,3696C6150.67,3696 6129.67,3703.67 6113,3719C6096.33,3734.33 6088.33,3753 6089,3775C6089,3789 6093,3802 6101,3814C6109,3825.33 6119.33,3835.67 6132,3845C6145.33,3853.67 6160.67,3862.33 6178,3871L6231,3896C6250.33,3904.67 6269.33,3913.33 6288,3922C6307.33,3931.33 6325.33,3942.67 6342,3956C6359.33,3968.67 6374.67,3983.33 6388,4000C6401.33,4016 6411.67,4035 6419,4057C6427,4079.67 6431,4104.67 6431,4132C6429.67,4200 6405.33,4254.33 6358,4295C6311.33,4335.67 6253,4356 6183,4356C6121.67,4356 6068.67,4345.67 6024,4325C5979.33,4303.67 5940,4272.33 5906,4231ZM6600,4335L6600,3585L7035,3585L7035,3715L6752,3715L6752,3888L6993,3888L6993,4018L6752,4018L6752,4205L7035,4205L7035,4335L6600,4335Z" style="fill:white;fill-rule:nonzero;"/> </g> <g transform="matrix(0.0375385,0,0,0.0375385,-7.08087,4.02306)"> <path d="M3484,6391C3506,6391 3525,6408 3515,6447L3414,6474C3430,6426 3460,6391 3484,6391M3540,6555L3520,6555C3495,6585 3467,6609 3440,6609C3412,6609 3398,6592 3398,6555C3398,6540 3400,6524 3403,6510L3567,6456C3599,6380 3560,6347 3515,6347C3437,6347 3349,6483 3349,6590C3349,6641 3373,6669 3411,6669C3456,6669 3502,6626 3540,6555M3514,6311L3607,6226L3607,6214L3545,6214L3490,6312L3514,6312L3514,6311ZM3165,6393L3219,6393L3133,6629C3125,6649 3136,6669 3157,6669C3218,6669 3291,6617 3319,6543L3304,6543C3282,6574 3234,6608 3198,6615L3277,6393L3358,6393L3368,6359L3289,6359L3319,6274L3288,6274L3232,6359L3165,6368L3165,6393ZM3109,6381C3116,6359 3101,6347 3090,6347C3043,6347 2986,6390 2964,6449L2979,6449C2994,6427 3020,6403 3045,6399L2954,6635C2946,6657 2962,6669 2974,6669C3019,6669 3072,6626 3094,6567L3079,6567C3064,6589 3038,6613 3013,6617L3109,6381ZM3118,6287C3138,6287 3155,6270 3155,6250C3155,6230 3138,6213 3118,6213C3108,6213 3099,6217 3092,6224C3085,6231 3081,6240 3081,6250C3081,6271 3097,6287 3118,6287M2679,6413C2693,6413 2701,6435 2679,6484L2615,6626C2603,6653 2616,6670 2642,6670C2658,6670 2665,6666 2672,6649L2735,6483C2764,6447 2818,6409 2842,6409C2859,6409 2857,6423 2846,6445L2749,6630C2740,6648 2752,6670 2773,6670C2820,6670 2877,6627 2899,6568L2882,6568C2867,6590 2841,6614 2816,6618L2899,6450C2910,6429 2915,6409 2915,6393C2915,6366 2900,6348 2871,6348C2830,6348 2795,6394 2745,6451L2745,6407C2745,6376 2735,6348 2707,6348C2674,6348 2644,6400 2620,6450L2635,6450C2652,6426 2667,6413 2679,6413M2614,6419C2625,6380 2619,6347 2590,6347C2553,6347 2541,6372 2505,6450L2505,6406C2505,6375 2495,6347 2467,6347C2434,6347 2404,6399 2380,6449L2395,6449C2411,6426 2426,6412 2438,6412C2452,6412 2460,6434 2438,6483L2374,6625C2362,6652 2375,6669 2401,6669C2417,6669 2424,6665 2431,6648L2492,6482C2510,6460 2526,6441 2546,6420L2614,6420L2614,6419ZM2265,6391C2287,6391 2306,6408 2296,6447L2195,6474C2212,6426 2241,6391 2265,6391M2321,6555L2301,6555C2276,6585 2248,6609 2221,6609C2193,6609 2179,6592 2179,6555C2179,6540 2181,6524 2184,6510L2348,6456C2380,6380 2342,6347 2296,6347C2218,6347 2130,6483 2130,6590C2130,6641 2154,6669 2192,6669C2237,6669 2283,6626 2321,6555M1946,6393L2000,6393L1914,6629C1906,6649 1917,6669 1938,6669C1999,6669 2073,6617 2100,6543L2085,6543C2063,6574 2015,6608 1979,6615L2058,6393L2139,6393L2149,6359L2070,6359L2100,6274L2069,6274L2013,6359L1946,6368L1946,6393ZM1659,6577C1659,6504 1740,6405 1786,6405C1796,6405 1806,6406 1814,6409L1767,6535C1740,6568 1698,6608 1678,6608C1666,6608 1659,6599 1659,6577M1908,6333L1883,6331L1855,6359L1850,6359C1731,6359 1603,6507 1603,6624C1603,6651 1618,6669 1647,6669C1682,6669 1716,6619 1755,6566L1753,6585C1748,6639 1765,6669 1793,6669C1826,6669 1856,6617 1879,6567L1864,6567C1848,6590 1833,6604 1821,6604C1809,6604 1800,6581 1821,6533L1908,6333ZM1653,6419C1664,6380 1658,6347 1629,6347C1592,6347 1580,6372 1544,6450L1544,6406C1544,6375 1534,6347 1505,6347C1472,6347 1442,6399 1419,6449L1434,6449C1450,6426 1465,6412 1477,6412C1491,6412 1499,6434 1477,6483L1412,6626C1400,6653 1413,6670 1439,6670C1455,6670 1462,6666 1469,6649L1532,6482C1550,6460 1566,6441 1586,6420L1653,6420L1653,6419ZM1234,6658L1240,6640C1161,6625 1151,6625 1183,6539L1213,6458L1276,6458C1315,6458 1316,6475 1310,6518L1333,6518L1385,6375L1362,6375C1342,6409 1327,6435 1284,6435L1221,6435L1264,6318C1279,6276 1286,6268 1340,6268L1354,6268C1409,6268 1416,6283 1416,6341L1438,6341L1456,6244L1151,6244L1145,6262C1208,6275 1214,6281 1185,6363L1120,6540C1090,6621 1078,6628 1005,6641L1000,6659L1234,6659L1234,6658ZM2747,5702C2769,5702 2788,5719 2778,5758L2677,5785C2693,5737 2723,5702 2747,5702M2803,5866L2783,5866C2758,5896 2730,5920 2703,5920C2675,5920 2661,5903 2661,5866C2661,5851 2663,5835 2666,5821L2830,5767C2862,5691 2823,5658 2778,5658C2700,5658 2612,5794 2612,5901C2612,5952 2636,5980 2674,5980C2719,5981 2765,5937 2803,5866M2777,5622L2870,5537L2870,5525L2808,5525L2753,5623L2777,5623L2777,5622ZM2428,5704L2482,5704L2396,5940C2388,5960 2399,5980 2420,5980C2481,5980 2554,5928 2582,5854L2567,5854C2545,5885 2497,5919 2461,5926L2540,5704L2621,5704L2631,5670L2552,5670L2582,5585L2551,5585L2495,5670L2428,5680L2428,5704ZM2372,5693C2379,5671 2364,5659 2352,5659C2305,5659 2248,5702 2226,5761L2241,5761C2256,5739 2282,5715 2307,5711L2216,5947C2208,5969 2224,5981 2236,5981C2281,5981 2334,5938 2356,5879L2341,5879C2326,5901 2300,5925 2275,5929L2372,5693ZM2381,5599C2401,5599 2418,5582 2418,5562C2418,5542 2401,5525 2381,5525C2368,5525 2356,5532 2349,5543C2342,5554 2342,5569 2349,5581C2356,5592 2368,5600 2381,5599M2091,5929L2241,5531L2236,5524L2132,5536L2132,5548L2152,5563C2170,5577 2164,5590 2148,5635L2034,5939C2024,5957 2037,5979 2058,5979C2105,5979 2156,5936 2178,5877L2163,5877C2147,5900 2115,5924 2091,5929M1785,5888C1785,5815 1866,5716 1912,5716C1922,5716 1931,5717 1940,5720L1892,5846C1865,5879 1823,5919 1803,5919C1792,5920 1785,5910 1785,5888M2034,5645L2009,5643L1981,5671L1976,5671C1857,5671 1729,5819 1729,5936C1729,5963 1744,5981 1773,5981C1808,5981 1842,5931 1881,5878L1879,5897C1874,5951 1891,5981 1919,5981C1952,5981 1982,5929 2005,5879L1990,5879C1974,5902 1959,5916 1947,5916C1935,5916 1926,5893 1947,5846L2034,5645ZM1455,6038C1455,6007 1485,5987 1528,5970C1542,5977 1564,5985 1592,5994C1637,6009 1654,6015 1654,6028C1654,6057 1613,6079 1538,6079C1482,6080 1455,6068 1455,6038M1578,5847C1558,5847 1551,5830 1551,5811C1551,5752 1579,5681 1624,5681C1644,5681 1651,5698 1651,5717C1651,5775 1622,5847 1578,5847M1706,6009C1706,5971 1672,5957 1617,5941C1570,5927 1548,5923 1548,5907C1548,5895 1558,5880 1578,5869C1656,5865 1705,5795 1705,5733C1705,5722 1703,5712 1700,5703L1753,5703L1763,5669L1673,5669C1661,5661 1646,5657 1629,5657C1547,5657 1494,5729 1494,5793C1494,5834 1518,5862 1556,5867C1518,5885 1496,5904 1496,5928C1496,5942 1501,5952 1513,5961C1425,5987 1389,6020 1389,6058C1389,6099 1443,6116 1507,6116C1615,6117 1706,6058 1706,6009M1298,5769C1337,5769 1338,5786 1332,5829L1355,5829L1407,5686L1384,5686C1364,5720 1349,5746 1306,5746L1219,5746L1262,5629C1277,5587 1285,5579 1338,5579L1376,5579C1431,5579 1438,5594 1438,5652L1460,5652L1478,5555L1151,5555L1145,5573C1208,5586 1214,5592 1185,5674L1120,5851C1090,5932 1078,5939 1005,5952L1000,5970L1364,5970L1429,5867L1404,5867C1362,5909 1319,5946 1238,5946C1141,5946 1150,5941 1182,5851L1212,5770L1298,5770L1298,5769ZM1345,5525L1438,5457L1438,5445L1376,5445L1321,5525L1345,5525ZM2735,5014C2757,5014 2776,5031 2766,5070L2665,5097C2681,5048 2711,5014 2735,5014M2791,5178L2771,5178C2746,5208 2718,5232 2691,5232C2663,5232 2649,5215 2649,5178C2649,5163 2651,5147 2654,5133L2818,5079C2850,5003 2811,4970 2766,4970C2688,4970 2600,5106 2600,5213C2600,5264 2624,5292 2662,5292C2707,5292 2753,5249 2791,5178M2765,4934L2858,4849L2858,4837L2796,4837L2741,4935L2765,4935L2765,4934ZM2416,5015L2471,5015L2385,5251C2377,5271 2388,5291 2409,5291C2470,5291 2544,5239 2571,5165L2556,5165C2534,5196 2486,5230 2450,5237L2529,5015L2610,5015L2620,4981L2541,4981L2571,4896L2540,4896L2484,4981L2417,4990L2417,5015L2416,5015ZM2388,5042C2399,5003 2393,4970 2364,4970C2327,4970 2315,4995 2279,5073L2279,5029C2279,4998 2269,4970 2241,4970C2208,4970 2178,5022 2154,5072L2169,5072C2185,5049 2200,5035 2212,5035C2226,5035 2234,5057 2212,5106L2148,5248C2136,5275 2149,5292 2175,5292C2191,5292 2198,5288 2205,5271L2268,5105C2286,5083 2302,5064 2322,5043L2388,5043L2388,5042ZM2039,5014C2061,5014 2080,5031 2070,5070L1969,5097C1985,5048 2015,5014 2039,5014M2095,5178L2075,5178C2050,5208 2022,5232 1995,5232C1967,5232 1953,5215 1953,5178C1953,5163 1955,5147 1958,5133L2122,5079C2154,5003 2116,4970 2070,4970C1992,4970 1904,5106 1904,5213C1904,5264 1928,5292 1966,5292C2011,5292 2057,5249 2095,5178M1713,5244C1697,5244 1674,5229 1674,5216C1674,5212 1681,5193 1690,5170L1716,5100C1744,5066 1788,5029 1813,5029C1828,5029 1839,5039 1839,5060C1838,5126 1778,5244 1713,5244M1895,5035C1895,4987 1883,4969 1849,4969C1807,4969 1768,5014 1728,5068L1812,4842L1807,4835L1703,4847L1703,4859L1723,4874C1741,4888 1735,4902 1719,4946L1628,5185C1620,5205 1611,5229 1611,5235C1611,5263 1649,5290 1684,5290C1763,5292 1895,5147 1895,5035M1588,5004C1594,4982 1580,4970 1568,4970C1521,4970 1464,5013 1442,5072L1457,5072C1472,5050 1498,5026 1523,5022L1432,5258C1424,5280 1440,5292 1452,5292C1497,5292 1550,5249 1572,5190L1557,5190C1542,5212 1516,5236 1491,5240L1588,5004ZM1598,4910C1618,4910 1635,4893 1635,4873C1635,4853 1618,4836 1598,4836C1585,4836 1573,4843 1566,4854C1559,4865 1559,4880 1566,4892C1573,4903 1585,4911 1598,4910M1367,4865L1151,4865L1145,4883C1208,4896 1214,4902 1185,4984L1120,5161C1090,5242 1078,5249 1005,5262L1000,5280L1328,5280L1399,5153L1374,5153C1333,5198 1286,5255 1213,5255C1158,5255 1150,5245 1181,5160L1246,4983C1276,4902 1288,4895 1361,4882L1367,4865Z" style="fill:white;fill-rule:nonzero;"/> </g> </g> </svg>