<?xml version="1.0" encoding="UTF-8" standalone="no"?>
<svg
   version="1.1"
   viewBox="0.00 0.00 907.00 900.00"
   id="svg3836"
   sodipodi:docname="CCClogo_node_color.svg"
   inkscape:version="1.1.2 (0a00cf5339, 2022-02-04)"
   xmlns:inkscape="http://www.inkscape.org/namespaces/inkscape"
   xmlns:sodipodi="http://sodipodi.sourceforge.net/DTD/sodipodi-0.dtd"
   xmlns="http://www.w3.org/2000/svg"
   xmlns:svg="http://www.w3.org/2000/svg">
  <defs
     id="defs3840" />
  <sodipodi:namedview
     id="namedview3838"
     pagecolor="#505050"
     bordercolor="#eeeeee"
     borderopacity="1"
     inkscape:pageshadow="0"
     inkscape:pageopacity="0"
     inkscape:pagecheckerboard="0"
     showgrid="false"
     inkscape:zoom="0.64555556"
     inkscape:cx="1082.0138"
     inkscape:cy="410.49914"
     inkscape:window-width="3440"
     inkscape:window-height="1371"
     inkscape:window-x="0"
     inkscape:window-y="32"
     inkscape:window-maximized="0"
     inkscape:current-layer="svg3836" />
  <path
     fill="#000000"
     d="   M 0.00 565.42   L 0.00 555.96   C 4.10 535.14 19.35 518.24 40.99 517.53   A 2.30 2.29 -85.0 0 0 43.16 515.70   L 82.25 327.25   A 1.38 1.38 0.0 0 0 81.23 325.63   Q 63.31 321.14 52.97 305.49   C 49.81 300.72 47.80 290.48 47.61 284.96   Q 46.72 258.51 69.68 244.15   C 82.24 236.30 100.88 238.36 113.12 245.15   A 1.32 1.32 0.0 0 0 114.91 244.64   L 167.93 148.23   A 1.15 1.14 37.5 0 0 167.75 146.88   C 157.27 136.03 151.71 117.96 160.51 104.03   C 173.56 83.37 199.18 76.82 218.15 94.41   A 2.71 2.71 0.0 0 0 221.67 94.56   L 271.20 55.54   A 1.19 1.16 -26.9 0 0 271.61 54.33   Q 270.09 48.37 270.68 42.02   Q 271.83 29.81 273.28 26.29   Q 274.38 23.63 281.22 15.99   Q 299.68 -4.62 326.93 2.03   C 327.97 2.29 329.27 2.14 330.22 2.53   C 348.53 10.09 361.42 27.43 359.93 47.61   A 1.50 1.48 10.3 0 0 361.01 49.15   L 560.70 106.09   A 1.30 1.30 0.0 0 0 562.23 105.41   C 579.77 70.18 625.78 70.84 642.23 106.01   Q 643.01 107.68 644.42 108.79   A 1.41 1.37 14.0 0 1 644.93 109.61   C 647.15 120.32 646.51 135.20 640.11 144.57   A 0.89 0.89 0.0 0 0 640.27 145.75   Q 706.28 201.70 770.41 259.79   A 0.98 0.97 -47.7 0 0 771.79 259.72   C 788.39 241.13 813.31 238.09 833.52 253.23   C 851.05 266.37 853.46 293.55 841.67 311.39   Q 835.17 321.22 823.51 326.93   Q 822.78 327.28 823.06 327.95   Q 823.24 328.38 823.65 328.17   Q 827.76 326.15 831.34 323.37   Q 831.64 323.13 831.91 323.23   Q 832.37 323.39 831.97 323.68   L 825.09 328.62   A 2.33 2.32 -30.0 0 0 824.32 331.46   C 825.34 333.76 826.07 336.31 827.05 338.45   C 831.10 347.30 834.15 355.41 838.23 365.43   C 843.38 378.05 846.75 390.22 852.35 401.93   Q 852.61 402.46 852.02 402.53   Q 851.76 402.56 851.50 402.38   Q 851.30 402.24 851.19 401.93   Q 837.74 365.93 822.93 330.75   A 0.51 0.34 34.5 0 0 822.06 330.73   L 850.93 403.36   Q 851.10 403.80 851.56 403.89   Q 852.53 404.11 853.50 403.69   A 1.17 1.10 36.7 0 1 854.11 403.62   C 865.57 405.55 875.72 411.88 881.61 421.88   C 886.07 429.44 886.84 438.03 885.38 446.72   C 883.51 457.86 877.50 466.48 867.89 472.34   A 0.71 0.69 -12.6 0 0 867.55 472.86   Q 867.45 473.53 866.95 473.35   Q 866.50 473.19 866.07 473.40   C 843.81 484.14 817.05 468.43 814.04 444.10   C 811.86 426.49 823.32 411.39 839.91 405.75   Q 841.37 405.26 841.01 403.76   L 839.65 398.19   A 0.20 0.20 0.0 0 1 840.01 398.04   Q 841.72 400.85 842.04 404.05   A 0.43 0.42 -25.8 0 0 842.77 404.30   Q 843.47 403.59 843.01 402.49   Q 828.39 366.88 814.87 331.03   A 1.25 1.25 0.0 0 0 813.48 330.23   Q 792.93 333.84 776.93 320.91   A 0.81 0.81 0.0 0 0 776.00 320.84   L 764.42 327.63   A 0.20 0.20 0.0 0 0 764.43 327.98   L 764.85 328.18   Q 765.51 328.49 764.80 328.63   L 764.08 328.77   Q 763.77 328.83 763.89 328.54   Q 763.97 328.36 764.03 328.15   A 0.15 0.15 0.0 0 0 763.84 327.96   L 762.41 328.34   A 0.34 0.33 37.4 0 0 762.50 329.00   L 763.18 329.00   Q 763.57 329.00 763.38 329.35   Q 763.20 329.67 762.68 329.73   Q 762.26 329.77 762.12 329.45   Q 761.96 329.09 761.56 329.12   Q 760.73 329.19 760.38 329.91   Q 760.19 330.30 759.77 330.24   Q 758.67 330.10 758.70 331.19   A 0.28 0.27 -83.8 0 1 758.36 331.47   L 757.79 331.32   Q 757.65 331.29 757.51 331.35   Q 738.35 340.54 719.99 351.25   Q 719.53 351.52 719.52 352.06   Q 719.49 353.91 717.66 353.92   A 0.21 0.21 0.0 0 1 717.55 353.53   L 718.72 352.84   A 0.52 0.52 0.0 0 0 718.21 351.93   L 700.45 361.28   A 0.40 0.40 0.0 0 0 700.49 362.01   Q 700.87 362.16 701.37 361.84   Q 703.53 360.44 706.03 359.86   Q 706.92 359.65 706.18 360.19   Q 703.71 362.03 700.75 362.82   A 0.60 0.59 73.8 0 1 700.03 362.42   Q 699.78 361.63 699.06 362.05   Q 694.62 364.59 690.15 367.07   Q 689.80 367.27 690.04 367.60   L 690.32 367.97   Q 690.59 368.35 690.95 368.05   Q 691.25 367.79 691.64 367.75   A 0.34 0.34 0.0 0 1 691.82 368.40   L 690.44 369.05   Q 689.90 369.30 690.06 369.88   C 706.09 426.56 704.40 484.04 680.98 538.25   Q 680.80 538.65 681.05 539.47   Q 681.20 539.94 680.84 540.27   C 679.36 541.63 679.35 543.49 678.66 544.88   Q 676.43 549.31 674.52 553.90   Q 673.84 555.54 675.72 556.05   A 0.34 0.34 0.0 0 0 675.99 555.43   Q 675.30 555.01 675.22 554.30   Q 675.15 553.64 675.71 553.98   Q 677.36 554.99 677.86 556.70   Q 678.03 557.28 678.53 557.60   L 747.19 602.80   Q 747.63 603.09 747.94 602.68   Q 748.17 602.39 748.48 602.25   A 0.33 0.33 0.0 0 1 748.80 602.83   Q 748.32 603.16 748.41 603.56   Q 748.48 603.84 748.89 604.10   Q 761.07 611.85 773.10 619.82   Q 773.52 620.09 773.96 619.85   Q 776.69 618.37 779.30 616.88   C 797.00 606.83 817.76 611.01 832.14 624.81   Q 832.52 625.17 832.88 624.79   Q 833.87 623.76 834.52 624.74   Q 836.13 627.14 837.80 629.51   A 0.11 0.10 -28.4 0 1 837.75 629.67   Q 837.62 629.71 837.50 629.75   Q 837.41 629.78 837.34 629.71   Q 835.78 627.96 834.16 626.27   Q 833.89 625.99 833.66 625.98   Q 833.48 625.98 833.35 626.08   A 0.41 0.40 50.8 0 0 833.29 626.70   Q 836.82 630.30 839.08 634.80   A 0.43 0.43 0.0 0 0 839.63 635.00   L 840.37 634.67   A 0.11 0.11 0.0 0 1 840.51 634.81   Q 840.45 634.95 840.34 635.04   A 0.44 0.43 61.0 0 0 840.21 635.52   C 850.22 661.37 841.73 688.14 814.52 698.00   Q 811.73 699.01 803.07 700.60   Q 802.45 700.72 802.15 701.27   L 799.91 705.40   Q 799.67 705.85 799.25 705.56   Q 798.93 705.35 799.02 704.99   Q 799.41 703.30 800.72 700.55   A 0.31 0.30 84.8 0 0 800.27 700.17   Q 799.04 701.09 798.60 703.07   Q 786.36 758.84 774.33 814.66   Q 773.49 818.55 772.91 822.48   Q 772.77 823.43 773.41 823.71   Q 773.87 823.91 773.96 823.42   L 777.17 806.28   A 0.39 0.39 0.0 0 0 777.12 806.00   Q 776.80 805.45 777.33 804.90   A 0.45 0.45 0.0 0 1 778.10 805.29   L 774.78 824.05   Q 774.68 824.62 775.21 824.87   L 776.81 825.61   Q 777.15 825.77 776.96 826.09   L 776.79 826.37   Q 776.67 826.59 776.44 826.49   L 773.84 825.39   Q 773.43 825.22 773.28 825.64   Q 773.17 825.95 773.35 826.28   Q 773.49 826.51 773.83 826.64   C 780.53 829.20 783.45 832.71 788.26 836.77   Q 788.40 836.89 788.32 837.05   Q 788.21 837.27 788.24 837.54   Q 788.26 837.72 788.40 837.88   C 796.73 848.10 798.08 861.91 793.38 874.04   C 791.51 878.85 786.46 882.98 782.68 886.46   Q 768.90 899.16 750.12 895.54   Q 749.63 895.44 749.18 895.64   C 745.70 897.11 743.59 895.08 741.71 892.37   Q 741.27 891.73 741.00 892.46   L 740.71 893.24   Q 740.39 894.10 739.92 893.31   L 739.75 893.02   Q 739.41 892.45 740.07 892.39   Q 740.54 892.34 740.70 892.01   Q 740.92 891.57 740.49 891.30   C 729.81 884.50 722.48 872.97 722.87 860.00   Q 723.03 854.88 723.07 850.02   A 0.89 0.88 -84.5 0 0 722.36 849.15   Q 718.11 848.31 714.00 846.99   Q 686.14 838.08 658.51 828.48   Q 655.55 827.45 652.53 826.65   C 649.63 825.87 646.69 826.71 643.44 825.51   A 2.41 2.41 0.0 0 0 640.64 826.37   L 635.74 833.23   Q 635.54 833.50 635.29 833.27   Q 635.03 833.03 635.26 832.75   Q 638.29 828.97 639.83 825.04   A 1.76 1.75 -70.1 0 1 642.00 824.02   L 648.43 826.09   A 0.25 0.25 0.0 0 0 648.76 825.84   Q 648.75 825.66 648.75 825.49   Q 648.75 825.32 648.60 825.26   C 645.27 823.85 640.93 821.02 638.65 825.43   Q 630.47 841.26 614.83 847.53   C 586.63 858.83 556.25 836.87 555.95 806.81   Q 555.94 806.32 555.59 805.96   L 555.31 805.69   Q 555.13 805.51 555.08 805.76   L 554.67 807.95   Q 554.56 808.56 553.96 808.41   L 551.99 807.95   A 0.29 0.29 0.0 0 1 552.04 807.38   Q 553.24 807.32 553.87 806.33   Q 554.40 805.48 553.46 805.83   L 492.07 828.04   Q 491.60 828.21 491.37 828.65   Q 490.95 829.43 490.13 829.05   Q 489.71 828.85 489.27 829.00   Q 483.85 830.80 478.43 832.57   C 476.49 833.20 475.45 834.92 476.39 836.83   A 0.31 0.31 0.0 0 0 476.98 836.70   L 477.01 834.79   Q 477.02 834.25 477.53 834.08   L 482.54 832.37   A 0.32 0.32 0.0 0 1 482.78 832.96   L 478.98 834.70   Q 478.51 834.91 478.29 835.37   Q 477.18 837.61 477.21 838.75   Q 477.47 846.42 476.51 854.02   Q 476.41 854.84 476.00 855.20   Q 475.70 855.46 475.22 855.53   A 1.10 1.09 12.7 0 0 474.47 856.00   C 469.38 863.80 465.24 869.13 457.20 873.78   Q 456.39 874.25 455.55 875.07   C 452.37 878.17 443.45 879.28 439.29 879.34   Q 432.39 879.42 425.18 876.14   C 419.09 873.37 409.93 867.99 407.54 861.49   C 404.83 854.15 402.47 845.77 403.06 838.24   C 404.25 823.16 415.53 809.97 430.04 806.30   C 447.05 801.98 463.56 809.51 472.15 825.02   A 0.43 0.42 39.6 0 0 472.93 824.95   L 473.06 824.56   Q 473.16 824.26 472.98 823.99   L 468.45 817.54   A 0.34 0.34 0.0 0 1 468.96 817.09   Q 472.17 820.02 473.69 824.07   A 0.65 0.64 -18.6 0 0 474.49 824.46   L 478.50 823.23   A 0.38 0.38 0.0 0 1 478.77 823.94   L 473.41 826.29   Q 472.99 826.48 473.28 826.83   Q 473.58 827.20 474.23 826.95   C 500.39 816.66 527.15 807.73 553.55 798.02   C 556.07 797.09 557.34 795.71 558.19 792.99   C 561.67 781.98 568.04 776.10 577.07 769.21   A 1.51 1.50 60.2 0 0 577.55 767.44   L 540.23 676.41   Q 539.67 675.05 538.30 675.55   Q 527.27 679.52 515.03 682.67   C 510.80 683.76 506.70 685.30 502.57 686.04   C 482.06 689.75 460.13 692.62 439.27 691.37   C 338.50 685.38 251.64 625.73 214.56 531.32   A 1.94 1.94 0.0 0 0 212.23 530.16   Q 154.97 546.15 97.25 561.76   Q 91.60 563.29 88.79 564.47   A 0.96 0.94 -8.7 0 0 88.21 565.24   Q 86.66 578.40 79.14 589.27   A 0.75 0.74 35.3 0 0 79.32 590.30   L 201.38 676.57   A 2.69 2.69 0.0 0 0 204.68 676.42   C 207.65 673.87 210.91 671.14 214.17 669.25   C 243.56 652.19 281.14 672.84 281.30 707.40   C 281.49 746.67 233.07 766.94 206.13 738.11   C 200.61 732.20 194.56 724.53 193.07 716.48   C 190.93 704.93 193.41 696.04 198.20 685.49   A 2.20 2.19 29.9 0 0 197.47 682.80   L 75.42 596.09   A 2.23 2.23 0.0 0 0 72.96 596.00   C 70.10 597.74 67.04 600.12 64.19 601.47   C 33.72 615.84 5.60 596.38 0.00 565.42   Z   M 357.69 57.94   Q 353.46 72.41 340.92 80.19   A 2.07 2.07 0.0 0 0 340.08 82.68   L 383.75 198.41   Q 384.28 199.83 385.76 199.49   Q 480.92 177.38 567.66 220.58   A 1.24 1.24 0.0 0 0 569.39 219.85   L 586.56 166.02   A 1.63 1.62 22.4 0 0 585.74 164.08   Q 555.01 148.53 559.17 113.56   A 1.03 1.02 -82.2 0 0 558.31 112.42   Q 554.73 111.84 551.57 110.93   Q 459.69 84.51 367.67 58.62   C 365.10 57.90 362.50 57.51 359.93 56.87   Q 358.13 56.42 357.69 57.94   Z   M 226.94 133.62   C 217.91 154.98 195.32 161.89 174.98 152.08   A 1.40 1.40 0.0 0 0 173.14 152.69   Q 147.81 200.33 120.88 247.70   C 119.72 249.73 120.21 250.17 121.65 251.60   Q 132.16 262.01 134.03 276.46   A 1.72 1.70 -83.0 0 0 135.09 277.83   Q 181.39 296.48 227.47 316.56   Q 228.90 317.19 230.05 317.22   A 1.05 1.04 15.7 0 0 230.99 316.70   Q 275.70 239.97 358.42 207.46   Q 359.34 207.10 359.01 206.17   Q 338.57 149.13 317.72 94.01   Q 316.66 91.22 315.78 89.61   A 0.95 0.94 -13.3 0 0 314.96 89.11   Q 287.14 88.63 274.78 64.18   A 1.28 1.27 -24.0 0 0 273.17 63.57   Q 271.09 64.41 269.44 65.69   Q 248.16 82.21 227.42 99.42   Q 225.95 100.64 225.02 102.17   A 0.89 0.89 0.0 0 0 224.99 103.07   Q 233.30 118.58 226.94 133.62   Z   M 593.18 235.70   C 631.89 261.92 661.11 298.61 679.31 341.98   Q 679.42 342.24 679.71 342.25   Q 679.83 342.25 679.97 342.25   Q 680.54 342.26 680.32 341.73   Q 674.31 326.91 671.08 321.68   Q 667.80 316.36 665.04 310.88   A 0.45 0.45 0.0 0 1 665.27 310.27   Q 665.64 310.12 665.83 310.60   C 667.43 314.71 670.46 318.51 672.12 321.97   Q 676.00 330.06 679.93 338.15   Q 680.72 339.79 682.83 338.84   Q 689.69 335.75 694.80 332.47   Q 696.64 331.29 699.77 329.94   Q 702.39 328.81 704.69 327.06   Q 705.08 326.77 705.57 326.78   C 706.92 326.80 707.61 325.80 708.48 325.36   Q 712.87 323.17 717.20 320.80   A 0.37 0.37 0.0 0 1 717.72 320.99   Q 717.84 321.29 717.49 321.48   C 707.22 327.01 696.80 332.36 686.83 338.42   C 684.81 339.65 682.87 339.44 681.15 341.48   A 0.41 0.41 0.0 0 0 681.66 342.10   Q 721.05 320.85 760.25 299.89   C 762.07 298.92 763.68 298.19 763.24 296.26   C 760.82 285.57 762.82 277.04 766.61 267.49   A 1.78 1.77 31.8 0 0 766.14 265.51   Q 703.72 209.88 641.04 155.20   C 639.67 154.00 635.87 150.72 634.18 152.43   Q 624.05 162.67 612.06 166.69   Q 611.57 166.85 611.34 167.32   C 610.07 170.00 609.67 173.88 609.14 175.73   Q 601.71 201.87 594.18 227.98   Q 593.23 231.25 592.80 234.89   A 0.86 0.85 20.1 0 0 593.18 235.70   Z   M 304.68 534.58   C 334.42 578.88 384.92 607.71 437.95 610.85   C 508.44 615.02 573.65 578.04 605.43 514.92   C 651.06 424.31 603.22 317.92 511.40 282.14   C 490.68 274.06 468.31 270.68 446.00 271.03   C 313.07 273.13 228.94 421.79 304.68 534.58   Z   M 51.31 517.34   C 59.75 520.35 67.98 523.02 74.60 529.56   C 77.23 532.14 79.77 535.99 82.09 539.21   A 1.51 1.51 0.0 0 0 83.73 539.78   Q 143.82 522.89 203.91 506.08   Q 205.71 505.58 205.18 503.31   Q 185.83 420.47 217.97 342.08   A 1.02 1.01 27.5 0 0 217.57 340.84   Q 214.94 339.20 211.83 337.89   Q 171.19 320.73 131.00 303.32   A 1.34 1.33 -63.0 0 0 129.33 303.87   Q 118.00 323.19 95.61 326.49   C 93.18 326.85 90.36 324.89 89.52 328.95   C 83.30 358.88 76.55 388.74 70.73 418.74   Q 61.42 466.78 50.20 515.30   A 1.74 1.74 0.0 0 0 51.31 517.34   Z   M 578.53 699.74   Q 577.38 698.52 576.86 696.88   Q 576.64 696.21 576.30 696.82   C 575.81 697.70 577.28 699.35 577.29 700.49   A 0.58 0.57 61.2 0 0 578.35 700.80   Q 578.58 700.42 578.53 699.74   Q 579.58 700.37 578.44 701.58   Q 578.06 701.98 578.23 702.51   L 579.40 706.29   Q 579.71 707.29 580.03 706.30   Q 580.58 704.61 579.30 703.41   A 0.32 0.31 32.3 0 1 579.22 703.09   Q 579.26 702.96 579.30 702.84   A 0.21 0.21 0.0 0 1 579.66 702.78   Q 582.21 705.90 581.53 709.86   Q 581.45 710.31 581.68 710.71   L 583.41 713.68   A 1.17 1.16 -52.1 0 1 583.52 714.59   Q 583.15 715.83 584.13 716.32   Q 584.71 716.61 584.39 717.17   Q 584.18 717.55 584.28 718.03   Q 584.44 718.85 584.95 718.18   Q 585.20 717.84 585.53 718.14   A 0.40 0.39 -66.5 0 1 585.67 718.50   L 585.47 719.92   Q 585.40 720.46 585.77 720.85   Q 587.86 723.10 587.53 725.96   Q 587.47 726.43 587.92 726.31   Q 588.29 726.21 588.49 726.50   C 590.38 729.36 589.62 732.90 592.17 736.69   Q 592.42 737.08 592.35 737.54   Q 592.19 738.63 593.19 739.15   Q 593.58 739.36 593.50 739.80   Q 593.32 740.82 594.15 741.32   A 0.83 0.82 -67.9 0 1 594.53 742.23   Q 594.20 743.56 595.14 744.28   Q 595.50 744.54 595.36 744.96   Q 594.86 746.46 595.92 747.46   Q 596.25 747.78 596.25 748.24   C 596.22 751.23 599.82 758.39 601.03 761.59   A 2.24 2.22 -10.6 0 0 603.15 763.03   C 628.55 762.67 648.44 789.70 643.10 813.84   A 2.10 2.10 0.0 0 0 644.48 816.28   L 653.26 819.24   Q 653.76 819.40 654.00 818.94   Q 654.36 818.27 654.79 818.06   Q 655.49 817.71 655.81 818.51   Q 656.05 819.12 655.40 818.99   Q 655.05 818.92 654.75 819.13   Q 654.26 819.45 654.81 819.63   L 725.03 843.24   A 1.45 1.45 0.0 0 0 726.70 842.66   C 735.47 829.30 747.73 821.26 764.30 823.76   Q 764.85 823.84 765.14 823.36   Q 766.08 821.80 766.02 819.96   Q 766.01 819.45 766.19 818.99   Q 766.60 817.94 767.00 816.00   Q 775.34 775.54 791.28 702.51   Q 791.54 701.33 791.94 700.57   Q 792.19 700.09 791.66 700.00   Q 791.27 699.93 791.01 700.10   Q 790.71 700.30 790.58 700.88   Q 786.49 717.92 783.12 735.12   Q 783.04 735.55 783.11 736.38   Q 783.19 737.41 782.45 737.65   A 0.39 0.38 87.4 0 1 781.96 737.20   L 789.94 699.70   A 0.99 0.99 0.0 0 0 789.19 698.52   C 763.87 692.76 751.39 667.10 759.84 643.02   A 2.50 2.50 0.0 0 0 758.80 640.06   Q 719.33 615.41 680.50 589.47   Q 670.96 583.10 661.30 577.10   A 0.87 0.87 0.0 0 0 660.09 577.39   C 641.34 608.51 612.75 634.12 582.92 654.30   Q 579.94 656.32 575.72 658.71   C 573.54 659.95 569.04 662.05 567.45 663.78   Q 567.08 664.19 566.53 664.23   Q 565.09 664.33 564.23 665.47   A 0.49 0.49 0.0 0 0 564.89 666.17   L 566.28 665.24   A 0.28 0.28 0.0 0 1 566.70 665.56   Q 566.56 665.97 566.13 666.19   A 0.81 0.80 71.4 0 0 565.71 667.04   L 566.05 669.01   A 0.31 0.31 0.0 0 1 565.46 669.18   L 564.84 667.66   A 0.19 0.19 0.0 0 0 564.53 667.59   L 564.31 667.82   A 0.52 0.52 0.0 0 0 564.20 668.42   Q 567.88 676.42 571.32 684.53   C 572.09 686.35 573.80 687.45 573.53 690.07   Q 573.49 690.50 573.92 690.50   Q 574.08 690.50 574.24 690.50   A 0.53 0.53 0.0 0 1 574.75 691.20   L 574.39 692.20   Q 574.20 692.71 574.74 692.75   Q 574.98 692.76 574.98 692.54   A 0.32 0.32 0.0 0 1 575.57 692.36   Q 577.88 695.72 578.53 699.74   Z   M 575.94 695.66   Q 576.66 694.50 575.52 693.74   A 0.33 0.32 10.4 0 0 575.02 694.08   L 575.39 695.57   Q 575.56 696.28 575.94 695.66   Z"
     id="path3706"
     style="fill:#30ae8f;fill-opacity:1" />
  <path
     fill="#000000"
     d="   M 504.35 455.57   C 516.70 413.39 475.13 375.56 433.58 388.35   C 387.17 402.64 377.55 466.21 423.45 488.96   A 2.70 2.70 0.0 0 1 424.95 491.36   Q 425.18 522.27 425.49 553.50   Q 425.52 557.47 425.19 561.27   Q 425.04 562.88 423.47 562.52   Q 374.59 551.52 345.90 512.23   C 316.96 472.57 315.18 417.89 341.55 376.39   C 393.95 293.96 514.44 298.09 561.76 383.51   C 586.74 428.60 579.99 484.37 545.29 522.40   Q 517.21 553.18 475.72 562.61   A 1.40 1.40 0.0 0 1 474.01 561.24   L 474.00 489.98   A 1.73 1.72 80.5 0 1 475.16 488.35   C 489.83 483.38 500.07 470.19 504.35 455.57   Z"
     id="path3710"
     style="fill:#30ae8f;fill-opacity:1" />
</svg>
